<?xml version="1.0" encoding="UTF-8" standalone="no"?>
<!-- Created with Inkscape (http://www.inkscape.org/) -->

<svg
   xmlns:dc="http://purl.org/dc/elements/1.1/"
   xmlns:cc="http://creativecommons.org/ns#"
   xmlns:rdf="http://www.w3.org/1999/02/22-rdf-syntax-ns#"
   xmlns:svg="http://www.w3.org/2000/svg"
   xmlns="http://www.w3.org/2000/svg"
   xmlns:sodipodi="http://sodipodi.sourceforge.net/DTD/sodipodi-0.dtd"
   xmlns:inkscape="http://www.inkscape.org/namespaces/inkscape"
   id="svg3068"
   version="1.1"
   inkscape:version="0.48.5 r10040"
   width="83.898308"
   height="83.898308"
   sodipodi:docname="logo.svg">
  <metadata
     id="metadata3074">
    <rdf:RDF>
      <cc:Work
         rdf:about="">
        <dc:format>image/svg+xml</dc:format>
        <dc:type
           rdf:resource="http://purl.org/dc/dcmitype/StillImage" />
        <dc:title></dc:title>
      </cc:Work>
    </rdf:RDF>
  </metadata>
  <defs
     id="defs3072" />
  <sodipodi:namedview
     pagecolor="#ffffff"
     bordercolor="#666666"
     borderopacity="1"
     objecttolerance="10"
     gridtolerance="10"
     guidetolerance="10"
     inkscape:pageopacity="0"
     inkscape:pageshadow="2"
     inkscape:window-width="640"
     inkscape:window-height="480"
     id="namedview3070"
     showgrid="false"
     inkscape:zoom="0.78666667"
     inkscape:cx="73.615434"
     inkscape:cy="-30.508465"
     inkscape:window-x="0"
     inkscape:window-y="19"
     inkscape:window-maximized="0"
     inkscape:current-layer="svg3068"
     fit-margin-top="0"
     fit-margin-left="0"
     fit-margin-right="0"
     fit-margin-bottom="0" />
  <g
     id="g3078"
     transform="scale(0.27966103,0.27966103)">
    <path
       style="fill:#f5f9f7"
       d="M 0,150 0,0 l 150,0 150,0 0,150 0,150 -150,0 -150,0 0,-150 z"
       id="path3094"
       inkscape:connector-curvature="0" />
    <path
       style="fill:#abc56f"
       d="m 149.06762,274.27037 c -1.33781,-0.2515 -4.44002,-1.99022 -6.8938,-3.86382 C 139.72004,268.53295 136.72185,267 135.51119,267 c -1.21067,0 -3.0157,-0.9 -4.01119,-2 -0.99549,-1.1 -2.9423,-2 -4.32625,-2 -1.38395,0 -3.2916,-0.70166 -4.23922,-1.55925 -0.94763,-0.85759 -3.87715,-1.77021 -6.51006,-2.02804 -2.63291,-0.25783 -5.26926,-0.86893 -5.85855,-1.358 -1.19283,-0.98996 -10.17516,-1.9945 -21.56592,-2.41181 -8.405836,-0.30796 -10.229792,0.57797 -12.531527,6.0868 -1.417822,3.39332 -3.237726,3.97014 -10.833792,3.43374 -3.474782,-0.24537 -8.503183,-4.00432 -8.579352,-6.41344 -0.04048,-1.28031 -0.891413,-1.75 -3.170459,-1.75 -2.247721,0 -3.988034,-0.93632 -6.25,-3.36261 -2.357023,-2.52825 -4.242738,-3.5043 -7.599784,-3.93367 -2.455702,-0.31408 -4.968541,-1.25981 -5.584085,-2.10162 -1.274815,-1.74341 -0.136155,-9.99278 2.111723,-15.29904 0.744872,-1.75832 1.646363,-5.39852 2.003312,-8.08933 l 0.648999,-4.8924 -4.479382,-2.10556 c -2.46366,-1.15805 -4.747919,-2.80535 -5.076132,-3.66066 C 29.331308,212.6998 28.23039,212 27.213038,212 c -1.017353,0 -3.567823,-1.52851 -5.667712,-3.39669 -3.280153,-2.9182 -3.722346,-3.79862 -3.139083,-6.25 0.373394,-1.56932 1.090041,-4.73312 1.59255,-7.03066 0.502509,-2.29754 1.679944,-5.89754 2.616522,-8 0.936577,-2.10246 2.706703,-7.53178 3.933612,-12.06516 1.556664,-5.75182 3.190807,-9.33597 5.407896,-11.8611 3.561213,-4.05599 5.384409,-8.03525 4.406511,-9.61752 -0.358036,-0.57932 0.426244,-1.86763 1.742846,-2.86292 L 40.5,149.10634 38.535225,145.44676 c -1.080626,-2.01277 -3.004766,-4.05498 -4.275865,-4.53825 -1.2711,-0.48327 -4.037495,-2.57289 -6.147546,-4.64359 -5.065276,-4.97082 -9.232192,-7.99944 -13.404554,-9.74277 -4.694472,-1.96147 -6.8978293,-5.61646 -6.3981364,-10.61339 0.2210931,-2.21093 0.9169875,-4.53487 1.546432,-5.16432 C 10.485,110.115 11,108.3951 11,106.92244 c 0,-1.47265 0.675,-3.23775 1.5,-3.92244 0.825,-0.68469 1.5,-1.89481 1.5,-2.68917 0,-0.794349 1.153663,-2.956804 2.563695,-4.805451 1.410032,-1.848647 2.736019,-4.722806 2.946637,-6.38702 0.210619,-1.664213 1.037783,-4.059159 1.838144,-5.322101 0.800361,-1.262942 1.767814,-3.793745 2.149895,-5.624008 0.428634,-2.053264 2.765857,-5.500149 6.102613,-9 2.974356,-3.119737 5.86561,-7.058378 6.425009,-8.752535 0.576868,-1.747062 2.955478,-4.53266 5.495548,-6.435855 4.614915,-3.457812 5.378627,-5.569599 3.248008,-8.981263 -1.007762,-1.613683 -0.945128,-2.25559 0.346077,-3.546794 C 46.865982,39.705446 49.159623,39.571157 63,40.408697 c 19.691023,1.191587 20.985479,1.052192 24.347601,-2.621909 2.304922,-2.518801 2.959632,-4.113699 2.80199,-6.825754 -0.187863,-3.231978 0.110218,-3.653205 3.436282,-4.855926 4.853565,-1.755072 27.093497,-1.882253 30.286897,-0.173198 1.3697,0.733041 3.71132,0.993494 5.65455,0.628943 1.82419,-0.342221 3.57542,-0.203629 3.89162,0.307983 0.89403,1.446579 10.13458,3.364849 16.41078,3.406759 3.11865,0.02083 6.12028,0.366457 6.67028,0.76807 0.55,0.401613 2.89925,1.043401 5.22056,1.426195 2.32131,0.382794 5.31729,1.558673 6.65773,2.613064 1.34044,1.054392 3.05854,1.917076 3.818,1.917076 0.75945,0 3.14612,0.9 5.30371,2 2.15759,1.1 5.79763,2 8.089,2 2.48326,0 4.66897,0.605907 5.411,1.5 0.68469,0.825 1.90786,1.5 2.71815,1.5 0.8103,0 2.6677,0.653065 4.12756,1.451255 4.95821,2.710942 19.39182,8.50268 22.76798,9.136052 3.27672,0.614715 12.57533,5.030827 16.75024,7.955045 C 238.50852,63.344058 240.18978,64 241.10006,64 c 0.91028,0 2.21525,0.675 2.89994,1.5 0.68469,0.825 2.02227,1.5 2.97241,1.5 0.95013,0 3.59113,1.35 5.86889,3 2.27776,1.65 4.51413,3 4.96971,3 0.45557,0 1.83441,1.157101 3.06407,2.571337 1.22966,1.414235 3.44831,3.006308 4.93033,3.53794 1.59401,0.571802 4.32836,3.411982 6.69459,6.953696 2.2,3.292901 5.61883,7.29185 7.5974,8.886553 1.97858,1.594704 4.19834,4.395939 4.93281,6.224964 0.73447,1.82903 2.37813,4.59754 3.65259,6.15224 1.83816,2.24234 2.3172,4.03906 2.3172,8.69098 0,3.22534 -0.45,6.14237 -1,6.48229 -0.55,0.33992 -1.00689,1.60398 -1.01531,2.80902 -0.0246,3.5169 -1.6359,5.12201 -5.17763,5.15767 -3.25484,0.0328 -3.31201,0.11226 -3.62052,5.03331 -0.19716,3.145 -1.00441,5.742 -2.17587,7 -2.50171,2.68653 -3.42609,6.85526 -2.07846,9.37334 1.74249,3.25587 1.5457,11.46764 -0.34392,14.35157 -0.91622,1.39832 -1.5359,3.15726 -1.37707,3.90875 0.30033,1.42099 -1.04517,1.49452 -5.09589,0.27851 -2.1015,-0.63086 -2.26214,-0.49691 -1.35278,1.12802 0.75626,1.35135 0.63968,2.44248 -0.4364,4.08479 -1.16098,1.77189 -1.22482,2.69584 -0.305,4.41453 1.11179,2.0774 0.93762,6.25372 -0.5822,13.96049 -0.9269,4.70019 -2.32279,6.24597 -5.02734,5.56717 -1.98272,-0.49763 -2.31802,-0.079 -2.95198,3.68572 -0.39335,2.33591 -1.53904,5.29659 -2.54597,6.57929 -1.21024,1.54168 -1.64471,3.26259 -1.2818,5.07714 0.36126,1.80626 -0.16459,3.91546 -1.53769,6.16782 -1.14768,1.88257 -2.08838,4.22319 -2.09043,5.20138 -0.005,2.47234 -5.367,12.84398 -7.75439,14.99977 -2.61025,2.35702 -11.66321,2.56051 -15.74935,0.35402 -1.65,-0.891 -4.09791,-1.62276 -5.4398,-1.62615 -5.09292,-0.0129 -18.95967,-2.97511 -23.5602,-5.03299 -1.1,-0.49204 -6.70838,-1.34004 -12.46308,-1.88443 -8.87259,-0.83934 -10.6967,-0.76232 -12,0.50669 -0.8453,0.82307 -2.35721,2.05625 -3.3598,2.7404 -1.31234,0.89553 -1.87464,2.67609 -2.00769,6.35756 -0.11728,3.24478 -0.82157,5.81725 -1.92712,7.03887 -0.95827,1.05887 -1.74231,3.32573 -1.74231,5.03746 0,1.71174 -0.45,3.39036 -1,3.73028 -0.55,0.33992 -1.00819,1.37898 -1.0182,2.30902 -0.0182,1.68938 -4.45574,9.13436 -7.41542,12.44098 -1.58166,1.76707 -2.09665,1.84793 -6.49876,1.02037 z M 99.679922,207.75 l 0.832468,-5.25 5.1871,-0.52241 c 6.02611,-0.60692 9.563,-3.30796 12.41047,-9.47759 3.57781,-7.75207 1.60751,-15.53343 -3.91666,-15.4682 -1.48132,0.0175 -3.57801,0.70069 -4.65933,1.51821 -1.8506,1.39914 -1.78683,1.45056 1.08631,0.87593 5.77321,-1.15464 8.23169,5.20591 5.0009,12.93828 -2.71267,6.49233 -11.20569,10.14917 -13.52153,5.82197 -1.17181,-2.18954 0.21841,-9.21579 2.51781,-12.72511 1.43912,-2.19638 1.43739,-2.54909 -0.0197,-4.00618 C 103.71899,180.57613 103,179.21429 103,178.42857 103,177.64286 102.55,177 102,177 c -0.55,0 -1.00207,0.5625 -1.00461,1.25 -0.005,1.48202 -3.608804,26.1724 -4.5582,31.23311 C 95.915349,212.26477 96.098325,213 97.312435,213 c 1.079389,0 1.782113,-1.55832 2.367487,-5.25 z M 88.076923,199.07692 C 90.386966,196.76688 91,195.26609 91,191.92084 91,187.98359 90.510933,187.22058 84,181 c -7.776113,-7.42934 -8.482133,-9.60878 -4.426534,-13.66438 2.610374,-2.61037 4.401574,-2.73184 11.176534,-0.75791 3.175888,0.92532 2.896599,-1.38138 -0.3151,-2.60246 C 89.024096,163.43886 86.06448,163 83.857977,163 78.499365,163 74,167.2526 74,172.31732 c 0,3.6153 1.139223,5.11617 9.825655,12.9448 C 86.811482,187.9531 88,189.8116 88,191.78962 c 0,6.35647 -6.228218,9.61028 -13.684821,7.14938 -4.046897,-1.33559 -4.175427,-1.34175 -4.565179,-0.21853 -0.515176,1.48467 4.935333,3.25056 10.076923,3.26479 4.564704,0.0126 5.745181,-0.40352 8.25,-2.90834 z m 60.240867,2.27196 c 0.35812,-0.35812 -0.0867,-1.19067 -0.98859,-1.85011 -1.50873,-1.10322 -1.51704,-1.98978 -0.10393,-11.09888 1.36471,-8.79713 1.10968,-13.36891 -0.59215,-10.61528 -0.96016,1.55358 -3.74066,21.49277 -3.19531,22.91392 0.51958,1.354 3.7463,1.78402 4.87998,0.65035 z m 29.01773,-0.0177 c 0.36786,-0.36787 0.0367,-1.38037 -0.7359,-2.25 -1.11461,-1.25459 -1.2086,-2.81254 -0.45505,-7.54326 0.52233,-3.27916 0.81599,-7.77916 0.65256,-10 -0.27051,-3.67619 -0.56586,-4.06423 -3.29713,-4.33194 -1.65,-0.16173 -3.9,0.39282 -5,1.23234 -1.89963,1.44979 -1.84153,1.49684 1.15779,0.93749 4.51149,-0.84135 5.26111,1.25113 4.02279,11.2292 -0.55322,4.45773 -0.72179,8.84523 -0.3746,9.75 0.64068,1.6696 2.81047,2.19524 4.02954,0.97617 z m 16.08269,0.0619 C 194.2882,201.05917 195,200.35761 195,199.83399 c 0,-0.52361 -0.40939,-0.69901 -0.90976,-0.38976 -0.50036,0.30924 -1.68113,0.26625 -2.62393,-0.0955 -1.49327,-0.57302 -1.62771,-1.61187 -1.04323,-8.06178 C 191.3188,181.40231 192.30659,179 195.47525,179 c 3.12947,0 3.3492,-1.74381 0.27475,-2.18045 -1.44596,-0.20536 -2.36419,-1.12359 -2.56955,-2.56955 -0.39609,-2.78892 -1.8323,-2.92229 -2.68079,-0.24894 -0.34931,1.10059 -1.54179,2.4863 -2.64996,3.07938 -1.82967,0.97921 -1.86494,1.18793 -0.38373,2.27102 1.45938,1.06713 1.50374,2.14936 0.42132,10.27922 -0.66538,4.99759 -0.92635,9.82516 -0.57992,10.72792 0.64316,1.67605 3.27694,2.12188 6.11084,1.03441 z m 21.87887,-2.57932 c 1.71536,-2.30594 1.82981,-3.09314 0.80824,-5.55943 -0.65455,-1.58022 -2.51777,-3.6574 -4.1405,-4.61597 -3.47108,-2.05042 -5.20006,-4.86168 -4.35093,-7.07448 0.74746,-1.94784 4.49554,-2.98124 7.43225,-2.04917 1.59958,0.50769 2.07036,0.32973 1.74516,-0.6597 -0.65427,-1.99067 -6.55024,-2.24291 -9.36207,-0.40052 -3.39681,2.22567 -3.28275,6.84203 0.24217,9.80219 5.08771,4.27255 6.3286,5.75163 6.3286,7.54339 0,3.84125 -4.76642,5.46575 -9.15139,3.11898 -2.53733,-1.35794 -3.55005,-0.46909 -1.8287,1.60501 0.91412,1.10144 2.64868,1.48303 5.79188,1.27417 3.51028,-0.23326 4.92194,-0.88289 6.48529,-2.98447 z m -86.90407,0.60452 c 0.33385,-0.86998 0.61687,-2.78248 0.62895,-4.25 0.0121,-1.46751 0.90086,-4.60479 1.97506,-6.97171 1.3282,-2.92659 1.66449,-4.8463 1.05104,-6 -0.49614,-0.93308 -1.15673,-2.51252 -1.468,-3.50988 -1.05009,-3.36473 -2.281,-0.79151 -2.88499,6.03109 -0.33023,3.73026 -0.90788,8.91979 -1.28367,11.53229 -0.43609,3.03174 -0.31104,4.75 0.34569,4.75 0.56591,0 1.30208,-0.7118 1.63592,-1.58179 z m 31.12398,-4.98885 c 0.60123,-3.26115 1.67255,-6.99017 2.38072,-8.28672 0.93116,-1.70482 0.98512,-2.65981 0.19493,-3.45 C 161.49169,182.09169 161,180.565 161,179.3 c 0,-2.00617 -1.96845,-3.51703 -2.01944,-1.55 -0.0107,0.4125 -0.67143,5.25 -1.46829,10.75 -1.78776,12.33914 -1.79811,12.76195 -0.30035,12.26269 0.66655,-0.22218 1.70383,-3.07218 2.30507,-6.33333 z m -20.04498,-16.47465 c -0.77197,-1.24908 -4.0333,0.45965 -4.8275,2.5293 -0.52972,1.38042 -0.28007,1.37889 2.41505,-0.0148 1.65321,-0.85491 2.73881,-1.98643 2.41245,-2.51449 z M 151,167.39301 c 0,-1.5989 -2.57595,-1.88815 -3.5,-0.39301 -0.33992,0.55 -0.35207,1.43035 -0.027,1.95633 0.82257,1.33094 3.52699,0.13222 3.52699,-1.56332 z m -48.05866,-10.96823 c 6.87884,-2.0428 14.03853,-8.98262 16.39146,-15.8881 6.84867,-20.09974 -6.04394,-38.8772 -25.614489,-37.30627 -7.718675,0.61958 -13.389922,3.39974 -18.056588,8.85169 -9.730174,11.36752 -8.785107,30.9006 1.922078,39.72636 7.232358,5.96152 15.660856,7.49592 25.357539,4.61632 z m -15.666891,-7.51797 c -11.541051,-5.71274 -13.41544,-25.12607 -3.307652,-34.25785 4.604318,-4.15972 7.448311,-5.08771 13.501377,-4.40544 10.670086,1.20268 17.189056,12.45666 14.557746,25.13164 -2.62159,12.62812 -14.004648,18.85125 -24.751471,13.53165 z M 164.5,153.5 l 0,-3 -9,-0.2498 c -14.08956,-0.39107 -13.5,-0.0135 -13.5,-8.64681 0,-4.80229 0.44975,-7.73176 1.29468,-8.43299 0.71208,-0.59097 4.64958,-1.20857 8.75,-1.37245 C 159.2509,131.50996 159.5,131.41647 159.5,129 c 0,-2.38402 -0.30154,-2.51187 -6.5,-2.75578 -11.36378,-0.44717 -11.13511,-0.27719 -10.795,-8.02457 L 142.5,111.5 l 10.25,-0.28498 10.25,-0.28499 0,-3.49175 0,-3.49175 -14.75,0.27674 -14.75,0.27673 -0.26798,24.98196 c -0.14738,13.74008 -0.0445,25.56436 0.22866,26.27616 0.38291,0.99786 3.9934,1.23097 15.76797,1.01804 L 164.5,156.5 l 0,-3 z m 18.91821,2.89301 C 184.70619,155.89877 185,154.03065 185,146.33551 l 0,-9.45051 4.17547,0.3075 c 4.1218,0.30355 4.25204,0.43283 10.13182,10.0575 5.89415,9.64819 5.99707,9.75 9.85592,9.75 2.41319,0 4.10359,-0.53168 4.43483,-1.39489 0.2944,-0.76719 -2.19472,-5.23618 -5.53138,-9.93109 C 204.72999,140.97912 202,136.48523 202,135.6876 c 0,-0.79762 1.53482,-2.62089 3.41072,-4.05171 6.6393,-5.06404 8.23276,-15.00554 3.3916,-21.16007 -3.84461,-4.88763 -8.99307,-6.42934 -21.55232,-6.45386 -8.31967,-0.0162 -11.26264,0.30363 -11.29854,1.22804 -0.28422,7.32018 0.26838,50.29669 0.65477,50.92188 0.5981,0.96774 4.53344,1.09549 6.81198,0.22113 z M 185.21247,120.75 185.5,111.5 l 4.38782,-0.31423 c 8.19933,-0.58719 12.31218,2.63683 12.31218,9.65139 0,2.76174 -0.72215,4.24019 -3.11578,6.37889 C 196.47319,129.54901 195.07395,130 190.4467,130 l -5.52175,0 0.28752,-9.25 z"
       id="path3092"
       inkscape:connector-curvature="0" />
    <path
       style="fill:#87b573"
       d="m 150.03705,274.20559 c -1.35463,-0.22028 -4.91539,-2.15665 -7.9128,-4.30305 -2.99741,-2.1464 -6.44648,-3.90254 -7.6646,-3.90254 -1.21812,0 -2.73589,-0.62793 -3.37283,-1.39539 -0.63694,-0.76747 -2.67183,-1.67938 -4.52197,-2.02647 -1.85013,-0.34708 -3.9142,-1.29416 -4.58681,-2.1046 C 121.28064,259.63323 119.06746,259 116.8279,259 c -2.15997,0 -5.2224,-0.66976 -6.80539,-1.48836 -2.0483,-1.05922 -6.84037,-1.5638 -16.619785,-1.75 L 79.661118,255.5 77.018873,260 c -2.126578,3.62177 -3.313276,4.60627 -6.080559,5.04453 -1.891073,0.29948 -4.699227,0.21168 -6.240343,-0.19512 -3.153075,-0.83231 -7.654442,-4.69997 -7.680694,-6.59941 -0.0095,-0.6875 -0.896103,-1.25 -1.970224,-1.25 -3.151153,0 -6.747845,-2.04789 -7.851718,-4.47063 -0.781899,-1.71608 -2.11324,-2.37273 -5.609725,-2.76683 -6.77553,-0.7637 -7.698704,-1.91251 -6.935593,-8.63071 0.351841,-3.09751 1.101854,-6.75683 1.666696,-8.13183 2.276939,-5.54278 3.471496,-11.52722 2.618936,-13.12024 -0.482516,-0.90159 -2.69043,-2.36472 -4.906476,-3.25141 C 31.813128,215.74166 30,214.3938 30,213.6331 c 0,-0.76071 -1.2375,-1.64478 -2.75,-1.96462 -4.198836,-0.88789 -9.568359,-6.43469 -8.757666,-9.0468 0.362165,-1.16693 1.060126,-4.02973 1.551024,-6.3618 0.490898,-2.33206 1.780017,-6.38206 2.864708,-9 1.084692,-2.61793 2.714654,-7.45988 3.622137,-10.75988 1.81677,-6.60655 2.458972,-7.94479 7.219797,-15.04474 1.7875,-2.66575 3.25,-5.82883 3.25,-7.02907 0,-1.20023 0.964816,-2.82286 2.144036,-3.60583 l 2.144035,-1.42359 -2.389323,-4.15154 c -1.314128,-2.28335 -3.390652,-4.40286 -4.614499,-4.71002 -1.223846,-0.30717 -3.885751,-2.35325 -5.915345,-4.54685 C 26.339311,133.79476 24.274632,132 23.780729,132 c -0.493903,0 -2.559118,-1.30438 -4.589367,-2.89863 -2.030249,-1.59425 -4.606497,-3.16867 -5.724996,-3.49872 -3.158391,-0.93198 -5.5693821,-5.80746 -4.8212764,-9.74953 C 8.9950746,114.0089 9.6161424,112.05 10.02524,111.5 c 0.409098,-0.55 1.057527,-2.46703 1.440953,-4.26007 0.902652,-4.22111 3.269305,-9.018452 6.199459,-12.566655 C 18.949543,93.118576 20,90.631204 20,89.145781 c 0,-1.485423 0.66056,-3.64385 1.467911,-4.796505 0.807351,-1.152655 1.770484,-3.987924 2.140296,-6.300598 0.50525,-3.159665 1.258932,-4.427865 3.032088,-5.102018 C 27.938133,72.453223 29,71.58966 29,71.027632 c 0,-0.562029 1.575,-2.765207 3.5,-4.895952 1.925,-2.130745 3.5,-4.349898 3.5,-4.931452 0,-3.834538 6.370769,-4.758121 7.534269,-1.092257 1.105295,3.482476 2.759262,2.088274 2.129135,-1.794742 -0.329054,-2.027725 -0.163438,-4.210725 0.368037,-4.851113 0.982451,-1.183782 1.176115,-3.585152 0.721606,-8.947693 L 46.5,41.528845 57.729741,41.315592 c 8.689832,-0.165021 11.557432,0.114439 12.678571,1.235577 C 71.205169,43.348026 73.062431,44 74.53556,44 c 1.893287,0 2.519901,0.413087 2.13765,1.409218 -0.394011,1.026776 1.408811,2.01146 6.643011,3.628346 3.951078,1.22052 9.433779,3.067914 12.183779,4.105319 7.12632,2.688321 21.1844,5.915453 22.90042,5.256954 0.79896,-0.306587 2.39231,-3.651083 3.5408,-7.432215 3.55277,-11.696744 6.12069,-12.149275 34.05878,-6.002013 8.33973,1.835004 18.07685,3.49692 29,4.949673 3.025,0.402318 6.85,1.440125 8.5,2.306237 1.65,0.866113 5.7,2.31938 9,3.229481 21.40292,5.902677 25.63622,7.786947 37,16.468957 4.4,3.36163 10.7,7.995943 14,10.298474 15.22069,10.620029 19.60801,15.026993 24.34973,24.458719 1.70803,3.39744 3.56677,6.46223 4.13053,6.81065 1.7366,1.07328 4.72595,8.84562 4.62006,12.0122 -0.0912,2.72796 -0.46304,3.04534 -4.10032,3.5 l -4,0.5 0.34573,6.25 c 0.23422,4.23421 -0.0241,6.25 -0.80103,6.25 -1.94621,0 -4.24651,6.7544 -3.05715,8.97674 0.56841,1.06209 1.30744,4.55215 1.64227,7.7557 0.48787,4.66766 0.28715,6.09158 -1.01051,7.16854 -0.89062,0.73915 -1.61931,2.18881 -1.61931,3.22146 0,2.01013 -3.3913,2.67147 -4.5,0.87756 -1.24708,-2.01782 -2.711,-0.97682 -2.09239,1.48792 0.34509,1.37496 0.0623,3.38801 -0.63214,4.5 -1.00176,1.60407 -1.00501,2.41488 -0.016,3.99851 1.64176,2.62887 1.51746,7.90519 -0.25945,11.01357 -0.78602,1.375 -1.44508,3.71094 -1.46456,5.19098 -0.0407,3.09282 -1.69599,4.54847 -3.32257,2.92189 -1.85369,-1.85369 -2.42774,-1.29743 -3.11841,3.0218 -0.36364,2.27407 -1.54616,5.25976 -2.62781,6.63486 -1.2421,1.57907 -1.96665,4.03798 -1.96665,6.6742 0,2.29571 -0.66069,5.04752 -1.4682,6.11514 -0.8075,1.06762 -1.4825,2.75698 -1.5,3.75414 -0.0514,2.93151 -6.08016,14.60745 -8.37082,16.2119 -2.76334,1.93551 -10.53383,1.8841 -14.50297,-0.096 -1.7321,-0.86408 -5.06373,-1.74723 -7.40364,-1.96254 -5.95054,-0.54756 -20.0454,-3.47371 -21.25196,-4.412 -1.12856,-0.87763 -8.80772,-1.9447 -18.49137,-2.56951 -3.56893,-0.23027 -6.64393,-0.88357 -6.83334,-1.45178 C 173.9883,230.4649 173.36573,230 172.79422,230 c -0.59361,0 -0.46331,0.69379 0.30392,1.61825 1.15844,1.39584 0.97065,1.91516 -1.36635,3.77862 -2.03739,1.62457 -2.87315,3.39337 -3.36974,7.13175 -0.36321,2.73426 -1.26826,5.85901 -2.01122,6.94389 -0.74295,1.08487 -1.35083,2.99958 -1.35083,4.2549 0,4.14154 -7.83238,18.65706 -10.83938,20.08829 -0.91334,0.43472 -2.76895,0.61017 -4.12357,0.38989 z M 99.393011,211.41821 c 0.333844,-0.86998 0.613879,-2.78248 0.622299,-4.25 0.023,-4.0143 1.08864,-4.94722 5.51123,-4.82503 7.76798,0.2146 14.47346,-7.93305 14.47346,-17.58632 0,-3.8008 -0.46722,-4.97921 -2.65713,-6.7018 -2.9469,-2.31803 -5.54676,-2.00867 -8.90732,1.05988 -2.68135,2.44835 -4.07184,2.3839 -4.75285,-0.2203 -0.82974,-3.17293 -3.14537,-1.71017 -3.45482,2.18237 -0.14966,1.88265 -1.162159,9.37007 -2.249995,16.63872 C 96.890048,204.98439 96,211.39689 96,211.96573 c 0,1.63975 2.722247,1.20047 3.393011,-0.54752 z M 103.2,198.8 c -3.79383,-3.79383 1.63935,-16.85268 7.9352,-19.07256 2.70813,-0.95487 5.8648,2.01274 5.8648,5.51354 0,8.68565 -9.41892,17.9401 -13.8,13.55902 z m -18.798574,2.80563 C 88.82469,199.75748 91,196.44029 91,191.54331 c 0,-3.63514 -0.599243,-4.57635 -6.384249,-10.0275 -3.511337,-3.30869 -6.671541,-6.96492 -7.022675,-8.12493 -1.578044,-5.21328 3.80213,-8.83939 10.567397,-7.12218 6.50804,1.65192 6.617236,-1.40773 0.114322,-3.20327 C 80.819513,161.00693 74,165.4199 74,172.30278 c 0,3.55911 0.658358,4.55885 7,10.62973 7.509316,7.1887 8.263486,9.19151 5.015816,13.32025 -2.661104,3.38305 -6.058975,4.07038 -11.225558,2.27074 C 69.470119,196.67038 69,196.65978 69,198.39305 c 0,1.55785 6.266395,4.47604 9.782119,4.55542 1.255165,0.0283 3.783853,-0.57593 5.619307,-1.34284 z m 128.633744,-0.12382 c 3.0887,-1.59723 4.55964,-5.03236 3.53597,-8.25767 -0.3352,-1.05611 -2.40083,-3.35979 -4.59029,-5.11929 C 209.79138,186.34535 208,184.04279 208,182.98806 c 0,-2.48677 3.27617,-4.20783 6.47948,-3.40385 1.85496,0.46556 2.52052,0.23652 2.52052,-0.86739 0,-1.96928 -4.19772,-2.97234 -7.3783,-1.76309 -3.25676,1.23822 -5.96588,5.3865 -5.16523,7.90913 0.34229,1.07844 2.6296,3.6056 5.08293,5.61591 4.98701,4.08648 5.37696,5.38196 2.42436,8.05403 -1.7574,1.59042 -2.48605,1.68011 -5.321,0.65498 -4.19049,-1.5153 -4.64276,-1.493 -4.64276,0.22889 0,1.32648 3.88196,3.32715 6.79966,3.50438 0.71481,0.0434 2.62079,-0.60423 4.23551,-1.43924 z M 149,201.32874 c 0,-0.36919 -0.66719,-1.4085 -1.48265,-2.30956 -1.30787,-1.44519 -1.30993,-2.69219 -0.0174,-10.57874 0.80585,-4.91724 1.47304,-9.50294 1.48264,-10.19044 0.0308,-2.20141 -2.92666,-1.33518 -3.41411,1 -1.38524,6.6361 -2.77879,19.75943 -2.24574,21.14855 0.58295,1.51913 5.67731,2.35381 5.67731,0.93019 z m 29,0.15769 c 0,-0.28246 -0.52715,-1.35766 -1.17144,-2.38933 -0.89065,-1.42617 -0.89696,-3.81665 -0.0263,-9.97321 1.24126,-8.77722 0.94923,-10.65134 -1.89707,-12.17463 -2.15498,-1.15331 -7.56244,0.72474 -9.77763,3.39584 -1.87802,2.26452 -2.92872,2.07551 -3.30801,-0.5951 -0.17575,-1.2375 -0.9783,-2.25 -1.78343,-2.25 -1.09608,0 -1.77309,2.38686 -2.69456,9.5 -1.62705,12.55977 -1.61815,14 0.0865,14 0.97633,0 1.6397,-1.69399 2.09715,-5.3553 0.84357,-6.75169 4.01477,-12.47191 8.30253,-14.97609 3.05686,-1.7853 3.45706,-1.8124 4.93528,-0.33418 1.41441,1.41441 1.47046,2.6416 0.46412,10.16291 -0.62951,4.70484 -0.88998,9.21764 -0.57885,10.02846 0.50981,1.32853 5.35173,2.19766 5.35173,0.96063 z M 195,200.5 c 1.05338,-1.26925 0.83664,-1.5 -1.40894,-1.5 -3.55339,0 -3.96503,-1.5825 -2.6374,-10.13929 1.2193,-7.85857 2.26878,-9.86071 5.16878,-9.86071 2.73231,0 2.2992,-1.67736 -0.62244,-2.41064 -1.88763,-0.47377 -2.5,-1.28303 -2.5,-3.30383 l 0,-2.67636 -3.52074,3.84375 c -3.09664,3.38074 -3.34995,4.03669 -2.10284,5.44542 1.08531,1.22596 1.22144,2.77452 0.58036,6.60166 -1.03281,6.16559 -1.18483,13.93862 -0.29011,14.83333 1.23175,1.23176 6.07635,0.68124 7.33333,-0.83333 z m -65.47981,-6.20355 c 1.26679,-7.00469 3.45357,-10.80652 7.55928,-13.1422 2.99756,-1.70527 3.93775,-4.15425 1.59484,-4.15425 -0.72912,0 -2.36954,1.11113 -3.64536,2.46918 -2.55572,2.72044 -4.02895,2.49683 -4.02895,-0.61153 0,-1.16947 -0.52517,-1.84926 -1.24363,-1.60977 -1.21978,0.40659 -4.84051,22.33465 -3.85121,23.32395 1.36004,1.36004 2.63418,-0.85176 3.61503,-6.27538 z m 21.30313,-26.62932 C 151.01039,166.70256 150.50849,166 149.63234,166 c -1.85773,0 -2.97896,1.63015 -2.09972,3.05279 0.90454,1.46356 2.90118,0.62281 3.2907,-1.38566 z M 105.5,155.61269 c 20.20478,-9.56806 21.74501,-39.82763 2.53799,-49.8615 -9.567554,-4.99815 -23.15661,-3.22278 -30.590081,3.99652 -8.524782,8.27916 -11.463725,23.391 -6.530822,33.58101 2.603453,5.37802 9.546401,11.89196 14.297978,13.41451 6.065276,1.9435 14.824385,1.45533 20.284935,-1.13054 z m -15.880698,-5.64711 c -12.894803,-3.86087 -15.895196,-26.82409 -4.732164,-36.21716 6.16418,-5.18681 14.803922,-4.8292 21.116742,0.87405 4.86429,4.39459 6.31601,8.7105 5.829,17.32936 -0.4804,8.50188 -3.90198,14.26846 -10.14902,17.10471 -4.500735,2.0434 -7.516903,2.27066 -12.064558,0.90904 z M 164.81336,153.25 c 0.20752,-2.15229 -0.13024,-3.27306 -1,-3.31827 -0.72235,-0.0375 -5.00442,-0.0102 -9.51571,0.0607 -11.68845,0.18376 -12.45229,-0.40382 -12.09029,-9.30042 L 142.5,133.5 151,133 l 8.5,-0.5 0.3108,-3.21569 c 0.26596,-2.75178 -0.0672,-3.31056 -2.30951,-3.87334 -1.44117,-0.36171 -4.72829,-0.42006 -7.3047,-0.12966 C 143.31267,126.05723 142,124.98519 142,118.58726 c 0,-3.1722 0.52976,-5.78203 1.30412,-6.4247 0.71727,-0.59528 5.55477,-1.21288 10.75,-1.37244 L 163.5,110.5 l 0.33008,-2.89149 c 0.18154,-1.59032 -0.11048,-3.16532 -0.64893,-3.5 -0.53845,-0.33468 -7.54948,-0.47289 -15.58007,-0.30713 L 133,104.10276 l 0,26.47401 0,26.47402 15.75,-0.2754 15.75,-0.27539 0.31336,-3.25 z M 185,147 l 0.5,-9.5 3.46287,0 c 3.04285,0 3.89189,0.62363 7,5.14153 1.94542,2.82784 4.76355,7.21534 6.26251,9.75 2.5921,4.38309 2.94377,4.60847 7.19098,4.60847 2.45609,0 4.72634,-0.42188 5.04502,-0.93752 0.31868,-0.51563 -2.35476,-5.09874 -5.94098,-10.18468 C 204.93418,140.79185 202,136.12336 202,135.50337 c 0,-0.61999 1.3769,-2.14524 3.05978,-3.38945 4.50603,-3.33145 6.93274,-7.92181 6.93274,-13.11392 0,-10.17667 -6.92811,-15.14775 -21.99252,-15.78015 -5.225,-0.21935 -10.6559,0.0493 -12.06868,0.59698 l -2.56867,0.99579 0.25824,25.84369 c 0.14203,14.21403 0.28543,25.98206 0.31867,26.15119 0.0332,0.16912 1.97294,0.16912 4.31044,0 L 184.5,156.5 185,147 z m 0.75,-17.57019 c -0.4125,-0.41973 -0.75,-4.48282 -0.75,-9.02909 0,-9.42993 0.65797,-10.14115 8.20264,-8.86649 8.20679,1.38653 11.54426,9.16078 6.4668,15.06368 -1.86662,2.17008 -3.4094,2.79759 -7.75,3.15225 -2.98069,0.24354 -5.75694,0.0994 -6.16944,-0.32035 z"
       id="path3090"
       inkscape:connector-curvature="0" />
    <path
       style="fill:#5d9991"
       d="m 148.5,273.30714 c -1.1,-0.27645 -3.98635,-2.03365 -6.41411,-3.90489 C 139.65813,267.53101 136.67573,266 135.45834,266 c -1.2174,0 -2.77699,-0.67903 -3.46577,-1.50895 -0.68877,-0.82992 -2.98538,-1.78608 -5.10356,-2.12479 -2.11819,-0.33871 -4.36485,-1.23468 -4.99258,-1.99105 C 121.26871,259.61884 119.70094,259 118.4125,259 c -1.28843,0 -4.27083,-0.64257 -6.62755,-1.42793 -8.14378,-2.71385 -29.708716,-3.71015 -32.376837,-1.49581 -0.838015,0.69549 -2.14301,2.74683 -2.89999,4.55854 -2.927392,7.00624 -15.646359,5.33438 -18.622085,-2.44779 -0.531861,-1.39093 -1.582385,-2.21149 -2.635237,-2.05836 -2.842681,0.41344 -5.963893,-1.04183 -7.604403,-3.54556 -1.062195,-1.62112 -2.889594,-2.54243 -5.954435,-3.00203 -7.120269,-1.06775 -7.795479,-2.01127 -6.732016,-9.40707 0.500299,-3.4793 1.547943,-7.3043 2.328097,-8.5 0.780155,-1.19569 1.729782,-4.26287 2.110282,-6.81596 0.632457,-4.24366 0.461866,-4.82284 -1.988112,-6.75 C 35.936252,216.94862 34.131802,216 33.400325,216 c -0.731477,0 -1.786291,-0.85267 -2.344032,-1.89482 -0.557742,-1.04215 -2.322921,-2.35108 -3.92262,-2.90874 -1.5997,-0.55766 -4.118635,-2.06608 -5.597632,-3.35205 -2.419803,-2.10399 -2.623258,-2.78907 -2.031714,-6.84126 0.725879,-4.9724 3.366956,-13.93449 4.571688,-15.51332 0.423957,-0.55561 1.686297,-4.50535 2.805202,-8.7772 2.250069,-8.59052 2.176402,-8.43358 6.824808,-14.53921 C 35.537679,159.76755 37,156.65579 37,155.16395 c 0,-1.59985 0.807353,-3.18706 2,-3.93188 1.1,-0.68696 2,-1.70415 2,-2.26042 C 41,146.72331 35.870259,140 34.15482,140 c -1.00105,0 -3.26661,-1.8 -5.034579,-4 -1.767968,-2.2 -3.813182,-4 -4.544919,-4 -0.731738,0 -1.919766,-0.7101 -2.640063,-1.57801 -0.720297,-0.8679 -3.45924,-2.6673 -6.086539,-3.99865 -2.6273,-1.33135 -5.3238,-3.43375 -5.9922219,-4.67199 -1.529288,-2.83298 -1.2416407,-7.78489 0.6644929,-11.43938 0.806678,-1.54658 1.46946,-3.82447 1.472848,-5.06197 0.0034,-1.2375 0.425837,-2.25 0.938773,-2.25 0.512937,0 1.240167,-1.0125 1.616067,-2.25 0.375899,-1.2375 1.756224,-3.682475 3.067387,-5.433278 C 18.92723,93.565919 20,90.808519 20,89.189167 c 0,-1.619353 0.639823,-3.475283 1.421828,-4.12429 0.782006,-0.649007 1.726655,-2.984268 2.099222,-5.189469 0.403999,-2.391249 1.883139,-5.294097 3.664889,-7.192432 7.620345,-8.118967 8.595082,-9.323726 9.250105,-11.432976 0.911447,-2.934971 3.118841,-2.855007 5.861922,0.212351 1.211119,1.354293 3.41995,2.748161 4.908515,3.097485 2.325929,0.54583 2.799432,0.264784 3.367555,-1.998794 C 51.68091,58.150901 50.53999,48.254163 48.688901,46.208733 46.036137,43.277462 46.512998,41.629587 49.75,42.541918 c 1.5125,0.426289 5.301711,0.755522 8.420468,0.731629 5.158327,-0.03952 5.724531,0.171959 6.269052,2.341505 0.329221,1.311721 0.328548,3.460855 -0.0015,4.775854 -0.858153,3.419152 1.072845,4.074512 4.948246,1.679382 C 71.290284,50.893544 74.436829,50 76.67663,50 c 3.469936,0 17.463164,4.398897 22.402852,7.042537 2.437568,1.304545 24.371668,4.945542 29.832658,4.952136 2.9591,0.0036 5.89842,0.876343 8.92519,2.65015 6.02722,3.532183 9.59025,4.294659 23.03161,4.928673 6.94327,0.327507 12.19851,1.061406 13.5,1.885285 1.17208,0.741964 4.05918,1.659461 6.41576,2.038883 2.35659,0.379422 5.50659,1.660165 7,2.846097 6.18937,4.915024 9.02966,6.448913 13.25871,7.160315 2.45112,0.412323 5.76115,1.844956 7.3556,3.183628 3.13684,2.633622 10.85895,6.713599 19.60099,10.356182 3.025,1.26044 6.2906,2.963744 7.25689,3.785134 1.8062,1.53534 3.03203,2.304 8.86252,5.55725 1.85933,1.03746 5.06939,3.39996 7.13347,5.25 2.06409,1.85005 4.31409,3.36332 5,3.36282 1.27311,-9.3e-4 1.88801,0.5542 14.49712,13.08804 7.64596,7.60032 8.82259,10.5177 5.65407,14.01887 -1.91868,2.12011 -2.05924,7.35065 -0.40838,15.19561 1.03785,4.93186 0.9975,6.05622 -0.26913,7.5 -0.8195,0.93411 -1.79855,2.71089 -2.17567,3.94839 -0.72545,2.38054 -2.02349,2.91237 -3.05089,1.25 -1.21771,-1.97029 -3.65134,-1.06821 -3.37226,1.25 0.14898,1.2375 -0.28922,3.27103 -0.97377,4.51896 -1.03826,1.89275 -0.95355,2.76173 0.51089,5.24085 1.65834,2.80733 1.66227,3.26306 0.071,8.23103 -0.92651,2.89254 -1.81665,6.15916 -1.97809,7.25916 -0.21726,1.48037 -1.05803,2 -3.23603,2 -2.68973,0 -3.01849,0.38659 -3.82694,4.5 -0.48644,2.475 -1.51676,5.21043 -2.28961,6.07874 -0.77284,0.86831 -1.40685,3.34331 -1.40891,5.5 -0.002,2.18709 -0.91041,5.40845 -2.05389,7.28404 -1.12758,1.84953 -1.84106,3.57186 -1.58552,3.82741 0.84018,0.84018 -4.4638,11.75282 -7.02745,14.45861 -2.13521,2.25358 -3.20496,2.60196 -7.16954,2.33484 -2.56292,-0.17268 -6.45986,-1.00739 -8.65986,-1.85491 -2.2,-0.84752 -5.20317,-1.5607 -6.67371,-1.58484 -4.40382,-0.0723 -19.73328,-3.48542 -22.32629,-4.97098 -0.55,-0.3151 -2.35,-0.65142 -4,-0.74737 -11.75965,-0.68388 -17.07192,-1.47025 -19.15577,-2.83564 -3.05579,-2.00224 -4.71339,-1.09242 -3.07375,1.68711 0.97951,1.66047 0.97171,2.17756 -0.0383,2.54293 -2.86002,1.03458 -4.23214,3.59328 -4.23214,7.89198 0,2.99468 -0.70426,5.42162 -2.13469,7.35639 -1.17408,1.58802 -1.86593,3.58769 -1.53744,4.44371 0.32848,0.85602 -0.0379,2.801 -0.8142,4.32219 -0.77629,1.52118 -1.66673,3.44079 -1.97876,4.26579 -0.31202,0.825 -1.82391,3.525 -3.35974,6 -2.82115,4.54628 -4.95096,5.49442 -9.67517,4.30714 z M 170,229 c 0,-0.55 -0.675,-1 -1.5,-1 -0.825,0 -1.5,0.45 -1.5,1 0,0.55 0.675,1 1.5,1 0.825,0 1.5,-0.45 1.5,-1 z M 99.081095,211.94048 c 0.39819,-0.79226 1.105335,-3.23999 1.571445,-5.43939 0.80958,-3.82019 1.00389,-3.98654 4.34746,-3.72202 8.9269,0.70624 17.99088,-12.21662 14.97599,-21.35184 -1.93048,-5.84938 -5.66092,-6.80888 -11.38085,-2.92723 -4.40385,2.98853 -4.59514,3.01629 -4.59514,0.66667 0,-2.35918 -0.84053,-3.16509 -2.59777,-2.49078 -0.78695,0.30198 -1.407921,1.9172 -1.4152,3.6811 C 99.979897,182.08564 99.085733,189.125 98,196 c -2.303046,14.58318 -2.475996,18.32533 -0.821443,17.77381 0.648207,-0.21606 1.504349,-1.04106 1.902538,-1.83333 z m 5.131605,-13.0575 C 98.370316,196.72174 105.89799,180 112.71331,180 c 5.10869,0 4.96977,9.65789 -0.22776,15.8348 -2.82947,3.36264 -5.13069,4.21054 -8.27285,3.04818 z m -16.810895,1.77332 c 1.402066,-0.91867 3.039615,-3.39759 3.699614,-5.60047 1.642208,-5.4812 0.09811,-8.71257 -7.193961,-15.05503 C 79.349833,176.0367 78,174.22827 78,172.08631 c 0,-5.51766 4.625519,-7.17703 12.75,-4.57395 1.828381,0.58582 2.25,0.34261 2.25,-1.2979 0,-4.03475 -9.37948,-5.5 -14.646906,-2.28812 -4.474364,2.72831 -6.028226,7.84867 -3.804138,12.53558 0.92341,1.94595 1.974961,3.53808 2.336781,3.53808 0.36182,0 2.785547,1.95343 5.386059,4.34096 C 86.246548,187.99018 87,189.26133 87,192.31791 c 0,6.26278 -4.652044,7.83259 -15.25,5.14605 -2.17795,-0.5521 -2.75,-0.3508 -2.75,0.96774 0,4.21285 12.973679,5.78124 18.401805,2.2246 z m 60.844155,1.21206 c 2.03432,-1.08873 2.04456,-1.18276 0.27005,-2.48031 -1.7337,-1.26772 -1.76741,-1.9531 -0.56144,-11.41625 0.70565,-5.53716 1.02396,-10.32661 0.70735,-10.64322 -1.87279,-1.87278 -3.43037,1.18351 -4.49842,8.8268 -1.85421,13.2693 -1.58953,15.95511 1.65224,16.76567 0.17366,0.0434 1.26726,-0.43029 2.43022,-1.05269 z m 29.54039,-0.0547 c 0.91512,-0.91512 0.82632,-1.58416 -0.38843,-2.92645 -1.34999,-1.49172 -1.41941,-2.74149 -0.48635,-8.75521 1.43565,-9.25298 1.38011,-10.69746 -0.483,-12.56056 -2.28591,-2.28591 -5.85157,-1.92782 -9.2462,0.92857 C 163.59291,181.52033 162,181.67402 162,179 c 0,-1.264 -0.66667,-2 -1.8116,-2 -1.54849,0 -2.01764,1.56134 -3.23016,10.75 -1.77407,13.44419 -1.77397,13.75 0.004,13.75 1.45003,0 2.42765,-2.67256 3.50703,-9.58728 1.09449,-7.01152 10.56543,-14.90113 13.05405,-10.87446 0.35292,0.57104 0.0918,5.06193 -0.58024,9.97975 -0.97813,7.1576 -0.97019,9.24479 0.0398,10.46174 1.51479,1.8252 3.19505,1.94201 4.80316,0.3339 z m 15.64855,0.2111 c 3.2909,-1.2512 3.31067,-3.02475 0.0337,-3.02475 -3.40476,0 -3.64962,-1.16561 -2.20376,-10.49051 1.20033,-7.74134 1.33246,-8.00671 4.23705,-8.50982 3.50104,-0.60643 4.08283,-3.34528 0.80958,-3.81116 -1.32974,-0.18927 -2.31073,-1.13953 -2.5,-2.42167 -0.42041,-2.84803 -2.81245,-3.47919 -3.48201,-0.91877 -0.29611,1.13234 -1.6944,2.81624 -3.1073,3.74201 -2.42812,1.59096 -2.46942,1.75596 -0.75364,3.01058 1.84818,1.35142 1.82999,4.28857 -0.10205,16.47757 -0.40952,2.58361 -0.10248,4.04292 1.1046,5.25 1.9436,1.94361 2.5098,2.00973 5.96381,0.69652 z m 21.11055,-1.4793 c 3.95491,-3.9549 3.3126,-7.72867 -2.08312,-12.23893 -6.10089,-5.09971 -5.8498,-7.68541 0.78767,-8.11131 5.01885,-0.32204 6.01973,-1.4453 2.81574,-3.16003 -3.23097,-1.72916 -7.02261,-1.16922 -9.61119,1.41937 -3.75277,3.75276 -3.19111,6.83022 2.04545,11.20744 7.10899,5.94238 5.57642,11.16005 -2.66366,9.0685 -4.81456,-1.22206 -6.11685,-0.1911 -2.97556,2.35559 3.3657,2.72862 8.66041,2.48364 11.68467,-0.54063 z M 129.57886,195.418 c 1.39437,-7.64865 3.72073,-12.00443 7.43807,-13.92674 3.02823,-1.56596 4.09515,-4.49125 1.63806,-4.49125 -0.73976,0 -2.1595,0.9 -3.15499,2 -0.99549,1.1 -2.13775,2 -2.53836,2 -0.40061,0 -0.96373,-0.9 -1.25139,-2 -0.28766,-1.1 -1.16673,-2 -1.95351,-2 -1.06371,0 -1.85408,2.97774 -3.08251,11.61347 -0.9086,6.38741 -1.39077,12.03616 -1.07148,12.55279 1.33289,2.15665 2.96524,-0.20324 3.97611,-5.74827 z m 21.75471,-26.84488 c 0.6533,-1.70246 -1.80418,-4.01833 -3.28977,-3.10018 -0.57409,0.35481 -1.0438,1.51855 -1.0438,2.58609 0,2.2917 3.49245,2.70602 4.33357,0.51409 z m -44.21604,-13.36585 c 16.35669,-8.54483 19.97136,-32.21361 6.91377,-45.2712 -13.26363,-13.26363 -35.501594,-8.69111 -43.282857,8.89972 -6.096161,13.78139 -1.136527,30.01232 11.115749,36.37748 7.658918,3.97887 17.629959,3.9765 25.253338,-0.006 z M 86.086987,147.8376 c -9.457603,-6.4776 -10.77488,-24.08304 -2.426583,-32.43134 4.300492,-4.30049 9.900187,-5.87094 15.529193,-4.35521 13.931873,3.75147 17.417383,24.59845 5.919153,35.40266 -2.64248,2.48299 -4.13673,3.01489 -9.376098,3.33761 -5.275097,0.32491 -6.757011,0.0247 -9.645665,-1.95372 z M 213.625,157 c 2.44938,0 1.44088,-2.32891 -5.19643,-12 l -6.5199,-9.5 3.9628,-3.5 c 10.22671,-9.03237 9.4041,-20.65976 -1.91017,-27 -3.96999,-2.22468 -5.61765,-2.5 -14.9613,-2.5 -5.775,0 -11.29499,0.32625 -12.26665,0.72501 -1.63542,0.67114 -1.74685,2.67687 -1.5,27 L 175.5,156.5 l 4.75,0.30479 4.75,0.30479 0,-8.93234 c 0,-9.8458 1.02855,-11.88886 5.42927,-10.78435 1.73657,0.43585 4.12394,3.32248 8.15606,9.86167 3.13545,5.08499 6.19893,9.59515 6.80774,10.02257 0.60881,0.42743 2.40068,0.53993 3.98193,0.25 C 210.95625,157.23721 212.86875,157 213.625,157 z M 186.25,128.88422 c -1.28961,-1.32491 -1.75516,-12.40421 -0.64301,-15.30243 0.76837,-2.00235 6.23471,-2.0926 10.81564,-0.17856 2.41147,1.00757 3.68853,2.40355 4.52927,4.95103 1.26577,3.83531 0.647,5.88878 -2.68236,8.90181 -2.5304,2.28998 -10.34501,3.34854 -12.01954,1.62815 z M 164.81037,153.25 164.5,149.5 153.75,149.21617 143,148.93234 l 0,-7.92573 0,-7.92573 8.20761,-0.29044 c 7.81363,-0.2765 8.23802,-0.41044 8.8412,-2.79044 1.04489,-4.12289 -0.56396,-5 -9.17125,-5 L 143,125 l 0,-6.5 0,-6.5 3.75,-0.0978 c 2.0625,-0.0538 6.675,-0.16632 10.25,-0.25 l 6.5,-0.15216 0,-4 0,-4 -14.4215,-0.2785 c -7.93182,-0.15318 -14.82458,0.12458 -15.31724,0.61724 -0.66499,0.66499 -1.11049,30.87034 -0.77301,52.41126 0.006,0.4125 7.23891,0.75 16.07212,0.75 l 16.06036,0 -0.31036,-3.75 z M 275,124.73908 c 0,-0.82181 -0.675,-2.05439 -1.5,-2.73908 -0.85708,-0.71132 -1.5,-2.89177 -1.5,-5.08726 C 272,112.84091 270.15239,111 266.06574,111 264.68058,111 264,110.35413 264,109.0396 c 0,-1.07821 -0.77915,-4.49069 -1.73144,-7.58328 -1.44445,-4.69089 -2.2732,-5.849244 -5,-6.988574 -3.67095,-1.533823 -3.92036,-2.244409 -1.76427,-5.026616 1.46906,-1.895656 1.5569,-1.878187 3.75,0.745711 1.23514,1.477762 3.49661,3.159219 5.02549,3.736572 1.85051,0.698809 3.3951,2.474983 4.62041,5.313159 1.01235,2.344888 2.79895,5.120668 3.97022,6.168418 1.19043,1.06487 2.12959,3.11247 2.12959,4.64301 0,1.51131 0.67204,2.99591 1.5,3.31363 0.825,0.31658 1.5,1.66297 1.5,2.99198 0,1.47398 0.97501,3.05522 2.5,4.05443 2.88108,1.88776 3.3204,4.58556 0.75,4.60561 -0.9625,0.008 -2.7625,0.285 -4,0.61664 -1.59847,0.42837 -2.25,0.17031 -2.25,-0.89121 z m -17.40344,-11.58285 c -0.34605,-0.55992 -0.1419,-1.31919 0.45366,-1.68727 1.53748,-0.95021 2.52947,0.35135 1.24598,1.63484 -0.71818,0.71818 -1.27752,0.73543 -1.69964,0.0524 z M 180.54271,65.069098 c -0.73955,-1.196602 1.14162,-2.382227 2.4736,-1.559017 C 184.13467,64.201265 183.40048,66 182,66 c -0.48508,0 -1.14086,-0.418906 -1.45729,-0.930902 z"
       id="path3088"
       inkscape:connector-curvature="0" />
    <path
       style="fill:#67a577"
       d="m 148.6193,271.96558 c -1.58438,-0.47439 -3.83438,-1.72948 -5,-2.78909 C 140.89736,266.70209 137.5776,265 135.47347,265 c -0.91191,0 -2.80218,-0.9 -4.2006,-2 -1.39842,-1.1 -3.5518,-2 -4.78528,-2 -1.23349,0 -2.75565,-0.61807 -3.38259,-1.37348 -0.62694,-0.75542 -3.48329,-1.68435 -6.34745,-2.06429 -2.86415,-0.37995 -5.6688,-1.07316 -6.23255,-1.54048 -1.52167,-1.26138 -13.854525,-2.6097 -23.442091,-2.56287 l -8.417091,0.0411 -2.197616,4.35737 c -2.574942,5.10551 -3.886397,6.10659 -8.027072,6.12732 -3.52397,0.0176 -5.104697,-1.0766 -8.803177,-6.09386 -2.036755,-2.76301 -3.205289,-3.50503 -4.984206,-3.16497 -1.653197,0.31603 -3.156199,-0.43783 -5.208794,-2.61256 -1.989234,-2.10759 -4.217881,-3.25662 -7.177318,-3.70042 -4.607287,-0.6909 -6.177369,-1.8498 -3.761891,-2.77671 1.933962,-0.74213 1.930214,-3.53165 -0.0057,-4.27454 -1.918968,-0.73638 -1.985521,-6.65926 -0.108397,-9.64681 0.765381,-1.21815 1.697167,-4.38041 2.070634,-7.02725 0.770562,-5.46112 -0.0072,-6.90327 -5.00086,-9.27292 C 33.66667,214.563 31.970791,212.99631 31.692757,211.9331 31.355029,210.64163 30.315955,210 28.562235,210 c -1.467533,0 -2.891774,-0.69519 -3.230004,-1.5766 -0.33275,-0.86714 -1.661896,-1.97844 -2.953657,-2.46957 -2.146676,-0.81616 -2.295797,-1.30406 -1.733987,-5.67339 0.338068,-2.62924 1.006337,-5.20794 1.485041,-5.73044 C 22.608333,194.0275 23,192.80204 23,191.82675 c 0,-0.97529 0.848272,-3.69779 1.885049,-6.05 C 27.359553,180.16266 29,174.83078 29,172.40209 c 0,-1.07575 1.827645,-4.38828 4.061434,-7.36117 2.233789,-2.9729 4.310439,-6.65028 4.614777,-8.17198 0.304339,-1.52169 1.401693,-3.53445 2.438566,-4.47281 C 41.15165,151.45777 42,150.06142 42,149.29313 c 0,-2.62531 -4.496332,-9.34512 -6.62139,-9.89573 -1.166765,-0.30231 -3.845591,-2.3154 -5.952948,-4.47353 C 27.318305,132.76574 25.035948,131 24.353756,131 c -0.682191,0 -1.843216,-0.86072 -2.580055,-1.9127 -0.736839,-1.05199 -3.124856,-2.73949 -5.306704,-3.75 -2.181849,-1.01052 -4.515185,-2.5123 -5.185194,-3.3373 -1.6815909,-2.07059 -1.579311,-7.20094 0.212036,-10.63569 0.821612,-1.57537 1.496612,-3.82171 1.5,-4.99187 C 12.997228,105.20229 13.675,103.68469 14.5,103 c 0.825,-0.68469 1.5,-1.91233 1.5,-2.72809 0,-0.815758 1.125,-2.820185 2.5,-4.454279 1.375,-1.634095 2.5,-4.186427 2.5,-5.67185 0,-1.485423 0.617502,-3.588396 1.372226,-4.673275 C 23.12695,84.387628 24.074061,81.925 24.476918,80 24.879774,78.075 26.307301,75.375 27.6492,74 32.559661,68.96841 38,61.840899 38,60.43918 c 0,-2.169562 1.832995,-1.7332 4.297966,1.023171 1.211119,1.354293 3.41995,2.748161 4.908515,3.097485 2.325929,0.54583 2.799432,0.264784 3.367555,-1.998794 C 51.68091,58.150901 50.53999,48.254163 48.688901,46.208733 46.036137,43.277462 46.512998,41.629587 49.75,42.541918 c 1.5125,0.426289 5.301711,0.755522 8.420468,0.731629 5.158327,-0.03952 5.724531,0.171959 6.269052,2.341505 0.329221,1.311721 0.328548,3.460855 -0.0015,4.775854 -0.858153,3.419152 1.072845,4.074512 4.948246,1.679382 C 71.290284,50.893544 74.436829,50 76.67663,50 c 3.469936,0 17.463164,4.398897 22.402852,7.042537 2.437568,1.304545 24.371668,4.945542 29.832658,4.952136 2.9591,0.0036 5.89842,0.876343 8.92519,2.65015 6.02722,3.532183 9.59025,4.294659 23.03161,4.928673 6.94327,0.327507 12.19851,1.061406 13.5,1.885285 1.17208,0.741964 4.05918,1.659461 6.41576,2.038883 2.35659,0.379422 5.50659,1.660165 7,2.846097 6.18937,4.915024 9.02966,6.448913 13.25871,7.160315 2.45112,0.412323 5.76115,1.844956 7.3556,3.183628 3.13684,2.633622 10.85895,6.713599 19.60099,10.356182 3.025,1.26044 6.2906,2.963744 7.25689,3.785134 1.8062,1.53534 3.03203,2.304 8.86252,5.55725 1.85933,1.03746 5.06939,3.39996 7.13347,5.25 2.06409,1.85005 4.31409,3.36332 5,3.36282 0.68592,-5e-4 2.59712,1.35249 4.24712,3.00665 1.65,1.65416 5.25,5.15338 8,7.77605 2.75,2.62266 6.11825,6.02373 7.485,7.55794 l 2.485,2.78946 -2.70259,-1.02752 c -2.62403,-0.99766 -2.68511,-0.94018 -2.10156,1.97759 0.44207,2.21033 0.13268,3.34757 -1.16983,4.29999 -1.76281,1.289 -1.78598,4.77636 -0.0585,8.79779 0.55711,1.29686 0.29689,1.56628 -1.14789,1.18846 -1.08518,-0.28378 -2.61288,0.33416 -3.64463,1.47423 -1.52294,1.68283 -2.30185,1.82066 -5.46068,0.96628 -2.0264,-0.54809 -6.07356,-2.35197 -8.99369,-4.00861 -2.92013,-1.65664 -5.53106,-2.79034 -5.80207,-2.51933 -0.54547,0.54547 7.21567,5.08565 12.48352,7.30272 3.90489,1.64343 9.72928,1.87317 10.62788,0.41921 1.41771,-2.2939 3.35561,-0.81411 4.01055,3.06247 0.51488,3.04751 0.287,4.50376 -0.9121,5.82874 C 272.7193,164.86266 272,166.1384 272,166.72619 c 0,0.58779 -1.4625,1.00235 -3.25,0.92126 -2.91992,-0.13247 -3.27897,0.15724 -3.53527,2.85255 -0.1569,1.65 -0.7931,4.00813 -1.41378,5.24028 -0.90639,1.79935 -0.80104,2.60214 0.53527,4.07875 2.10694,2.32813 2.11656,6.42852 0.0279,11.89754 -1.06125,2.77886 -2.24763,4.28343 -3.37755,4.28343 -2.30361,0 -3.60105,1.74182 -4.46928,6 -0.3925,1.925 -1.34446,4.49667 -2.11547,5.71482 -0.77101,1.21815 -1.40352,3.91815 -1.40558,6 -0.002,2.08185 -0.81484,5.13518 -1.80619,6.78518 -0.99135,1.65 -2.57386,5.48355 -3.51668,8.519 -2.02194,6.50973 -5.13298,11.94499 -6.90869,12.07011 -4.89189,0.3447 -8.71549,0.008 -10.45138,-0.92143 -1.11441,-0.59641 -6.9283,-1.82803 -12.91976,-2.73693 -5.99146,-0.9089 -13.14356,-2.49549 -15.89356,-3.52576 -2.75,-1.03027 -8.78175,-2.10695 -13.40389,-2.39263 -4.68875,-0.2898 -9.77259,-1.2192 -11.5,-2.10237 -1.70286,-0.87063 -5.68361,-1.83154 -8.84611,-2.13536 -5.31054,-0.51019 -5.75,-0.39566 -5.75,1.49858 0,1.61308 0.85294,2.1951 3.99476,2.7259 4.8386,0.81748 5.70252,1.89909 3.01847,3.77907 -1.48478,1.03998 -2.10021,2.7578 -2.32201,6.48134 -0.16598,2.78647 -0.83674,5.71089 -1.49057,6.49871 -0.65382,0.78781 -1.45291,2.9645 -1.77575,4.83708 -0.59412,3.44611 -1.92515,7.1669 -3.54318,9.90469 -0.48757,0.825 -1.36674,2.62418 -1.95371,3.99817 -1.36101,3.1859 -3.92187,6.02664 -5.333,5.91588 -0.60225,-0.0473 -2.39132,-0.47409 -3.97571,-0.94847 z M 100.09408,213 c 0.43909,-0.825 1.06794,-3.1875 1.39744,-5.25 0.56701,-3.5491 0.79757,-3.75035 4.30379,-3.75659 6.90147,-0.0123 13.27882,-6.44447 15.25161,-15.38275 1.33811,-6.06272 0.29826,-9.68315 -3.495,-12.1686 -2.83167,-1.85538 -6.89744,-1.32659 -9.78126,1.27214 -1.58028,1.42406 -1.89364,1.35549 -3.63539,-0.79547 -1.63466,-2.01873 -2.13592,-2.16308 -3.52065,-1.01385 -0.888043,0.737 -1.636203,2.74741 -1.662581,4.46756 -0.02638,1.72016 -1.085133,9.65256 -2.352787,17.62756 -1.267654,7.975 -2.088796,15.08629 -1.824761,15.80287 0.622325,1.68896 4.287814,1.13574 5.319589,-0.80287 z m 3.30777,-16.39519 c -0.87999,-2.29322 1.47048,-9.29964 4.21334,-12.55934 7.01263,-8.33403 11.17244,2.59832 4.30884,11.32398 -2.28267,2.90195 -7.58757,3.67094 -8.52218,1.23536 z m -17.307968,5.84664 c 3.45111,-1.78464 6.896936,-6.90223 6.90238,-10.25111 0.0061,-3.77847 -2.622159,-7.72609 -8.470635,-12.7226 C 80.227202,175.80548 79,174.12557 79,171.91371 c 0,-3.52584 3.003646,-5.35256 7.36484,-4.47905 6.344955,1.27083 7.122664,1.15315 7.447145,-1.12693 0.458549,-3.22214 -4.787693,-5.68329 -10.695258,-5.01742 -3.450536,0.38893 -5.219974,1.26082 -7.313299,3.60366 -5.788109,6.47802 -4.710631,11.27749 4.289114,19.10523 C 84.727661,188.0307 86,189.75331 86,191.99724 c 0,5.68286 -5.30212,7.57467 -12.638353,4.5094 C 69.165684,194.75345 68,195.21016 68,198.60729 c 0,4.71377 11.632913,7.18526 18.093882,3.84416 z m 62.971858,0.51337 c 2.36725,-1.26691 2.50465,-3.54623 0.28854,-4.78643 -1.48957,-0.83361 -1.52533,-1.8306 -0.37688,-10.50765 C 150.22525,178.2427 150.00143,175 148.10281,175 c -2.41548,0 -3.89332,3.54469 -5.07316,12.16824 -1.67771,12.26255 -1.62012,13.92683 0.53648,15.50377 2.18717,1.5993 2.97957,1.64149 5.49961,0.29281 z m 29,0 c 2.30943,-1.23597 2.51938,-3.53799 0.42935,-4.70763 -1.29963,-0.72731 -1.34643,-1.96277 -0.34309,-9.05761 1.35202,-9.56043 0.46863,-12.75472 -3.82543,-13.83246 -1.92412,-0.48293 -3.90456,-0.051 -6.64275,1.4489 l -3.90131,2.13696 -1.82674,-2.22649 c -1.61603,-1.96966 -1.99082,-2.05346 -3.24915,-0.72649 -1.53436,1.61805 -4.90868,23.30986 -3.99601,25.68825 0.29917,0.77962 1.49917,1.2812 2.66667,1.11462 1.74391,-0.24882 2.34476,-1.42509 3.36695,-6.59137 1.50879,-7.62563 3.4866,-11.66142 6.76886,-13.81203 3.82531,-2.50645 5.87756,-1.1524 5.10505,3.36825 -1.95681,11.45111 -1.97717,15.49658 -0.0849,16.88022 2.22105,1.62408 3.006,1.66903 5.53253,0.31688 z m 15.70486,-0.0347 c 4.91845,-1.71458 5.53872,-6.72654 0.68159,-5.50748 -1.28129,0.32159 -2.5311,0.24555 -2.77735,-0.16897 -0.24625,-0.41452 0.0637,-4.10103 0.68871,-8.19224 1.10741,-7.2485 1.22112,-7.46046 4.45009,-8.29509 2.65049,-0.68509 3.25088,-1.29778 3,-3.06142 -0.19623,-1.37954 -1.13288,-2.32152 -2.50215,-2.51641 -1.36341,-0.19406 -2.30594,-1.13659 -2.5,-2.5 -0.42771,-3.00509 -4.74834,-3.64598 -5.48888,-0.81419 -0.29233,1.1179 -1.60951,2.73887 -2.92706,3.60216 -2.79013,1.82816 -3.09375,4.03341 -0.73693,5.35235 1.50242,0.84079 1.5404,1.79329 0.4033,10.1141 -1.14878,8.40635 -1.10665,9.35016 0.49637,11.12148 2.0147,2.22622 2.97791,2.34183 7.21231,0.86571 z m 20.15788,-0.39313 C 217.09962,200.89713 218,199.20225 218,194.87276 c 0,-2.85705 -1.48872,-4.83785 -6.89246,-9.17066 -3.10653,-2.49086 -2.14594,-4.18976 2.41349,-4.26851 4.84141,-0.0836 7.02029,-2.77747 4.03784,-4.99216 -3.29784,-2.44889 -8.34837,-1.80578 -11.63579,1.48165 -4.30157,4.30156 -3.89794,7.47375 1.57692,12.39335 2.475,2.22399 4.5,4.91184 4.5,5.973 0,1.67351 -0.49732,1.84683 -3.75,1.30686 -7.44146,-1.23532 -7.73588,-1.19552 -8.06117,1.08972 -0.61714,4.33558 8.08559,6.7748 13.73965,3.85098 z m -83.19822,-6.94657 c 1.41748,-7.84265 3.17444,-11.05888 7.33987,-13.43617 3.38382,-1.93119 4.39024,-3.89461 2.91036,-5.67776 -1.21815,-1.46778 -4.39742,-0.88397 -6.05361,1.11161 -0.94607,1.13995 -1.41815,1.02677 -2.79151,-0.66925 -3.36043,-4.14996 -4.72813,-1.695 -6.51323,11.69096 -0.91734,6.87892 -1.39014,12.95656 -1.05066,13.50585 0.33948,0.54929 1.5831,0.86048 2.76359,0.69153 1.81072,-0.25916 2.34163,-1.38765 3.39519,-7.21677 z m 21.33931,-26.17424 c 0.95388,-1.14936 1.02615,-2.04088 0.26345,-3.25 -1.33724,-2.11998 -4.31145,-2.14749 -5.63318,-0.0521 -2.38692,3.78405 2.48388,6.77933 5.36973,3.3021 z M 105.77228,157.3183 c 4.90734,-2.04519 11.05255,-8.06293 14.0462,-13.75484 2.31112,-4.39422 2.66337,-6.253 2.66514,-14.06346 0.002,-10.60848 -1.68084,-14.66176 -8.82243,-21.24466 -7.66963,-7.06961 -19.253635,-8.959428 -29.268641,-4.77489 -5.220324,2.18119 -11.957863,9.08161 -14.392008,14.73993 -7.732964,17.97576 1.251052,37.29075 18.999459,40.84748 4.395046,0.88076 12.48607,0.0368 16.77228,-1.74956 z m -17.353842,-9.28715 c -7.511493,-3.03872 -11.673325,-16.69735 -7.86539,-25.81327 6.226786,-14.90646 25.136012,-14.11504 29.432882,1.23188 3.6822,13.1515 -3.61207,25.6421 -14.883813,25.48685 -2.531164,-0.0349 -5.53882,-0.44232 -6.683679,-0.90546 z m 127.842282,9.30771 c 1.28163,-0.79208 0.5396,-2.19011 -6.18306,-11.64935 C 206.73495,140.98609 204,136.50405 204,135.72943 c 0,-0.77462 1.10721,-1.91288 2.46048,-2.52947 1.35326,-0.61658 3.50223,-2.76712 4.7755,-4.77896 1.97197,-3.11584 2.23209,-4.52537 1.75533,-9.51191 -0.66564,-6.96207 -2.93029,-10.43851 -9.01228,-13.83463 -3.60673,-2.01396 -6.30667,-2.53793 -15.91142,-3.08791 -12.1792,-0.6974 -13.70984,-0.55332 -14.24318,1.34077 -0.18161,0.64497 -0.10391,13.09768 0.17268,27.67268 l 0.50289,26.5 5.75,0.2999 5.75,0.29991 0,-9.49089 c 0,-5.58884 0.4345,-9.75942 1.05684,-10.14405 2.68327,-1.65835 5.63481,0.84398 10.35434,8.77846 7.18664,12.0822 7.17213,12.06961 13.02384,11.29335 2.72254,-0.36116 5.34411,-0.90018 5.8257,-1.19782 z M 186.71691,128.25 c -0.22062,-0.4125 -0.19692,-4.00327 0.0527,-7.97948 l 0.45379,-7.22949 5.02198,0.11314 c 3.62664,0.0817 5.59262,0.6838 7.07581,2.16699 1.12961,1.12961 1.58487,2.21016 1.01168,2.40123 -0.57319,0.19106 -0.83974,1.40626 -0.59234,2.70044 0.24739,1.29418 -0.0483,3.28379 -0.65711,4.42136 -1.50045,2.80362 -11.25216,5.4893 -12.36648,3.40581 z M 166.3366,154.31323 C 167.26695,148.5801 166.16808,148 154.37756,148 L 144,148 l 0,-6.95956 0,-6.95956 8.22878,-0.29044 c 8.0082,-0.28265 8.25512,-0.36557 9.2116,-3.09321 1.73062,-4.93531 -0.0197,-6.15688 -9.29578,-6.48767 L 144,123.91912 l 0,-5.42458 0,-5.42457 10.18009,-0.28499 10.1801,-0.28498 0.83305,-3 c 0.45819,-1.65 0.59357,-4.0125 0.30086,-5.25 -0.5253,-2.22079 -0.74615,-2.25 -17.01315,-2.25 -12.48745,0 -16.49487,0.30289 -16.53841,1.25 -0.0625,1.35862 -0.0446,52.7716 0.0188,54 0.0213,0.4125 7.6298,0.75 16.90784,0.75 l 16.86916,0 0.59828,-3.68677 z M 241,141.65499 c 0,-0.18976 -1.0125,-1.20226 -2.25,-2.25 L 236.5,137.5 l 1.90499,2.25 c 1.79022,2.11444 2.59501,2.70524 2.59501,1.90499 z m -7,-5.03998 c 0,-0.21174 -1.2375,-1.13845 -2.75,-2.05935 l -2.75,-1.67436 2.36078,2.05935 c 2.30373,2.00958 3.13922,2.4552 3.13922,1.67436 z M 270.5,134 c -0.33992,-0.55 -1.04148,-1 -1.55902,-1 -0.51754,0 -0.94098,0.45 -0.94098,1 0,0.55 0.70156,1 1.55902,1 0.85746,0 1.2809,-0.45 0.94098,-1 z m -44.08382,-3.09262 c -1.04159,-1.15095 -2.79884,-2.55032 -3.90499,-3.10972 -1.10616,-0.5594 -0.43619,0.36399 1.48881,2.05199 4.08399,3.58116 5.10393,4.02766 2.41618,1.05773 z M 18,118 c 0,-1.33333 -0.666667,-2 -2,-2 -1.92719,0 -2.709897,1.95677 -1.333333,3.33333 C 16.043231,120.7099 18,119.92719 18,118 z M 86.393708,62.5 c 0.305053,-3.3 0.217019,-4.911195 -0.195631,-3.580433 -0.475296,1.532793 -2.023461,2.866475 -4.224174,3.638957 L 78.5,63.777914 81,64.825571 c 1.375,0.576211 1.9375,1.07618 1.25,1.111043 -1.591363,0.0807 -1.615908,2.297478 -0.04286,3.870529 2.01788,2.01788 3.575941,-0.701526 4.186565,-7.307143 z M 275,124.73908 c 0,-0.82181 -0.675,-2.05439 -1.5,-2.73908 -0.85708,-0.71132 -1.5,-2.89177 -1.5,-5.08726 C 272,112.84091 270.15239,111 266.06574,111 264.68058,111 264,110.35413 264,109.0396 c 0,-1.07821 -0.77915,-4.49069 -1.73144,-7.58328 -1.44445,-4.69089 -2.2732,-5.849244 -5,-6.988574 -3.67095,-1.533823 -3.92036,-2.244409 -1.76427,-5.026616 1.46906,-1.895656 1.5569,-1.878187 3.75,0.745711 1.23514,1.477762 3.49661,3.159219 5.02549,3.736572 1.85051,0.698809 3.3951,2.474983 4.62041,5.313159 1.01235,2.344888 2.79895,5.120668 3.97022,6.168418 1.19043,1.06487 2.12959,3.11247 2.12959,4.64301 0,1.51131 0.67204,2.99591 1.5,3.31363 0.825,0.31658 1.5,1.66297 1.5,2.99198 0,1.47398 0.97501,3.05522 2.5,4.05443 2.88108,1.88776 3.3204,4.58556 0.75,4.60561 -0.9625,0.008 -2.7625,0.285 -4,0.61664 -1.59847,0.42837 -2.25,0.17031 -2.25,-0.89121 z m -17.40344,-11.58285 c -0.34605,-0.55992 -0.1419,-1.31919 0.45366,-1.68727 1.53748,-0.95021 2.52947,0.35135 1.24598,1.63484 -0.71818,0.71818 -1.27752,0.73543 -1.69964,0.0524 z M 180.54271,65.069098 c -0.73955,-1.196602 1.14162,-2.382227 2.4736,-1.559017 C 184.13467,64.201265 183.40048,66 182,66 c -0.48508,0 -1.14086,-0.418906 -1.45729,-0.930902 z"
       id="path3086"
       inkscape:connector-curvature="0" />
    <path
       style="fill:#368a7a"
       d="m 148.6193,271.96558 c -1.58438,-0.47439 -3.83438,-1.72948 -5,-2.78909 C 140.89736,266.70209 137.5776,265 135.47347,265 c -0.91191,0 -2.80218,-0.9 -4.2006,-2 -1.39842,-1.1 -3.5518,-2 -4.78528,-2 -1.23349,0 -2.75565,-0.61807 -3.38259,-1.37348 -0.62694,-0.75542 -3.48329,-1.68435 -6.34745,-2.06429 -2.86415,-0.37995 -5.6688,-1.07316 -6.23255,-1.54048 -1.52167,-1.26138 -13.854525,-2.6097 -23.442091,-2.56287 l -8.417091,0.0411 -2.197616,4.35737 c -2.574942,5.10551 -3.886397,6.10659 -8.027072,6.12732 -3.52397,0.0176 -5.104697,-1.0766 -8.803177,-6.09386 -2.036755,-2.76301 -3.205289,-3.50503 -4.984206,-3.16497 -1.653197,0.31603 -3.156199,-0.43783 -5.208794,-2.61256 -1.989234,-2.10759 -4.217881,-3.25662 -7.177318,-3.70042 -4.607287,-0.6909 -6.177369,-1.8498 -3.761891,-2.77671 1.933962,-0.74213 1.930214,-3.53165 -0.0057,-4.27454 -1.918968,-0.73638 -1.985521,-6.65926 -0.108397,-9.64681 0.765381,-1.21815 1.697167,-4.38041 2.070634,-7.02725 0.770562,-5.46112 -0.0072,-6.90327 -5.00086,-9.27292 C 33.66667,214.563 31.970791,212.99631 31.692757,211.9331 31.355029,210.64163 30.315955,210 28.562235,210 c -1.467533,0 -2.891774,-0.69519 -3.230004,-1.5766 -0.33275,-0.86714 -1.661896,-1.97844 -2.953657,-2.46957 -2.146676,-0.81616 -2.295797,-1.30406 -1.733987,-5.67339 0.338068,-2.62924 1.006337,-5.20794 1.485041,-5.73044 C 22.608333,194.0275 23,192.80204 23,191.82675 c 0,-0.97529 0.848272,-3.69779 1.885049,-6.05 C 27.359553,180.16266 29,174.83078 29,172.40209 c 0,-1.07575 1.827645,-4.38828 4.061434,-7.36117 2.233789,-2.9729 4.310439,-6.65028 4.614777,-8.17198 0.304339,-1.52169 1.401693,-3.53445 2.438566,-4.47281 C 41.15165,151.45777 42,150.06142 42,149.29313 c 0,-2.62531 -4.496332,-9.34512 -6.62139,-9.89573 -1.166765,-0.30231 -3.845591,-2.3154 -5.952948,-4.47353 C 27.318305,132.76574 25.035948,131 24.353756,131 c -0.682191,0 -1.843216,-0.86072 -2.580055,-1.9127 -0.736839,-1.05199 -3.124856,-2.73949 -5.306704,-3.75 -2.181849,-1.01052 -4.515185,-2.5123 -5.185194,-3.3373 -1.6815909,-2.07059 -1.579311,-7.20094 0.212036,-10.63569 0.821612,-1.57537 1.496612,-3.82171 1.5,-4.99187 C 12.997228,105.20229 13.675,103.68469 14.5,103 c 0.825,-0.68469 1.5,-1.91233 1.5,-2.72809 0,-0.815758 1.125,-2.820185 2.5,-4.454279 1.375,-1.634095 2.5,-4.186427 2.5,-5.67185 0,-1.485423 0.617502,-3.588396 1.372226,-4.673275 C 23.12695,84.387628 24.074061,81.925 24.476918,80 c 0.402856,-1.925 1.830383,-4.625 3.172282,-6 3.722769,-3.8146 10.087742,-11.723767 10.616638,-13.192321 0.336755,-0.935047 1.29209,-0.574114 3.35256,1.266623 3.563565,3.183538 9.895702,5.522491 13.88932,5.13041 2.113219,-0.20747 3.515006,-1.179187 4.713453,-3.267361 2.185884,-3.808683 4.370212,-4.61712 6.722717,-2.488131 1.046518,0.947085 4.001369,1.844944 6.712755,2.039731 6.364469,0.457228 9.903989,1.546525 8.282174,2.548862 -0.676638,0.418186 -0.942543,1.368254 -0.590899,2.111262 1.149735,2.429341 3.131825,5.335977 4.152082,6.088821 2.680411,1.977864 14.84277,5.704297 21.77729,6.672359 4.27752,0.597142 9.45252,1.803737 11.5,2.681321 2.04749,0.877584 5.98082,1.771827 8.74072,1.987206 2.75991,0.215378 8.83491,1.803902 13.5,3.530053 7.8868,2.918226 14.90241,5.072774 25.98199,7.979262 2.475,0.649263 5.79332,1.647766 7.37405,2.218896 2.64835,0.956867 2.73494,1.140137 1.10264,2.333717 -1.62837,1.19068 -1.75418,3.45434 -1.55791,28.02981 0.11743,14.70399 0.43531,27.09339 0.70638,27.532 0.27108,0.43861 2.94132,0.79748 5.93386,0.79748 l 5.44098,0 0,-9.44098 c 0,-5.55379 0.43514,-9.70992 1.05684,-10.09415 2.75234,-1.70104 5.64369,0.83809 10.80963,9.49285 2.95156,4.94489 5.99728,9.51424 6.76826,10.1541 2.05458,1.70515 11.90116,-0.0959 11.76289,-2.15162 -0.0563,-0.83718 -2.86882,-5.4147 -6.25,-10.17226 C 206.76643,141.03038 204,136.50405 204,135.72943 c 0,-0.77462 1.10853,-1.91348 2.46339,-2.5308 1.35487,-0.61731 3.61051,-2.93955 5.01255,-5.16051 2.90705,-4.60508 3.51489,-4.81073 6.02406,-2.03812 0.99549,1.1 2.33657,2 2.9802,2 0.64362,0 3.77802,2.025 6.96533,4.5 3.18731,2.475 6.16504,4.5 6.61719,4.5 0.45214,0 3.88056,2.67406 7.6187,5.94235 10.8983,9.52848 26.3787,16.00546 28.81858,12.05765 1.41771,-2.2939 3.35561,-0.81411 4.01055,3.06247 0.51488,3.04751 0.287,4.50376 -0.9121,5.82874 C 272.7193,164.86266 272,166.1384 272,166.72619 c 0,0.58779 -1.4625,1.00235 -3.25,0.92126 -2.91992,-0.13247 -3.27897,0.15724 -3.53527,2.85255 -0.1569,1.65 -0.7931,4.00813 -1.41378,5.24028 -0.90639,1.79935 -0.80104,2.60214 0.53527,4.07875 2.10694,2.32813 2.11656,6.42852 0.0279,11.89754 -1.06125,2.77886 -2.24763,4.28343 -3.37755,4.28343 -2.30361,0 -3.60105,1.74182 -4.46928,6 -0.3925,1.925 -1.34446,4.49667 -2.11547,5.71482 -0.77101,1.21815 -1.40352,3.91815 -1.40558,6 -0.002,2.08185 -0.81484,5.13518 -1.80619,6.78518 -0.99135,1.65 -2.57386,5.48355 -3.51668,8.519 -2.02194,6.50973 -5.13298,11.94499 -6.90869,12.07011 -4.89189,0.3447 -8.71549,0.008 -10.45138,-0.92143 -1.11441,-0.59641 -6.9283,-1.82803 -12.91976,-2.73693 -5.99146,-0.9089 -13.14356,-2.49549 -15.89356,-3.52576 -2.75,-1.03027 -8.78175,-2.10695 -13.40389,-2.39263 -4.68875,-0.2898 -9.77259,-1.2192 -11.5,-2.10237 -1.70286,-0.87063 -5.68361,-1.83154 -8.84611,-2.13536 -5.31054,-0.51019 -5.75,-0.39566 -5.75,1.49858 0,1.61308 0.85294,2.1951 3.99476,2.7259 4.8386,0.81748 5.70252,1.89909 3.01847,3.77907 -1.48478,1.03998 -2.10021,2.7578 -2.32201,6.48134 -0.16598,2.78647 -0.83674,5.71089 -1.49057,6.49871 -0.65382,0.78781 -1.45291,2.9645 -1.77575,4.83708 -0.59412,3.44611 -1.92515,7.1669 -3.54318,9.90469 -0.48757,0.825 -1.36674,2.62418 -1.95371,3.99817 -1.36101,3.1859 -3.92187,6.02664 -5.333,5.91588 -0.60225,-0.0473 -2.39132,-0.47409 -3.97571,-0.94847 z M 100.09408,213 c 0.43909,-0.825 1.06794,-3.1875 1.39744,-5.25 0.56701,-3.5491 0.79757,-3.75035 4.30379,-3.75659 6.90147,-0.0123 13.27882,-6.44447 15.25161,-15.38275 1.33811,-6.06272 0.29826,-9.68315 -3.495,-12.1686 -2.83167,-1.85538 -6.89744,-1.32659 -9.78126,1.27214 -1.58028,1.42406 -1.89364,1.35549 -3.63539,-0.79547 -1.63466,-2.01873 -2.13592,-2.16308 -3.52065,-1.01385 -0.888043,0.737 -1.636203,2.74741 -1.662581,4.46756 -0.02638,1.72016 -1.085133,9.65256 -2.352787,17.62756 -1.267654,7.975 -2.088796,15.08629 -1.824761,15.80287 0.622325,1.68896 4.287814,1.13574 5.319589,-0.80287 z m 3.30777,-16.39519 c -0.87999,-2.29322 1.47048,-9.29964 4.21334,-12.55934 7.01263,-8.33403 11.17244,2.59832 4.30884,11.32398 -2.28267,2.90195 -7.58757,3.67094 -8.52218,1.23536 z m -17.307968,5.84664 c 3.45111,-1.78464 6.896936,-6.90223 6.90238,-10.25111 0.0061,-3.77847 -2.622159,-7.72609 -8.470635,-12.7226 C 80.227202,175.80548 79,174.12557 79,171.91371 c 0,-3.52584 3.003646,-5.35256 7.36484,-4.47905 6.344955,1.27083 7.122664,1.15315 7.447145,-1.12693 0.458549,-3.22214 -4.787693,-5.68329 -10.695258,-5.01742 -3.450536,0.38893 -5.219974,1.26082 -7.313299,3.60366 -5.788109,6.47802 -4.710631,11.27749 4.289114,19.10523 C 84.727661,188.0307 86,189.75331 86,191.99724 c 0,5.68286 -5.30212,7.57467 -12.638353,4.5094 C 69.165684,194.75345 68,195.21016 68,198.60729 c 0,4.71377 11.632913,7.18526 18.093882,3.84416 z m 62.971858,0.51337 c 2.36725,-1.26691 2.50465,-3.54623 0.28854,-4.78643 -1.48957,-0.83361 -1.52533,-1.8306 -0.37688,-10.50765 C 150.22525,178.2427 150.00143,175 148.10281,175 c -2.41548,0 -3.89332,3.54469 -5.07316,12.16824 -1.67771,12.26255 -1.62012,13.92683 0.53648,15.50377 2.18717,1.5993 2.97957,1.64149 5.49961,0.29281 z m 29,0 c 2.30943,-1.23597 2.51938,-3.53799 0.42935,-4.70763 -1.29963,-0.72731 -1.34643,-1.96277 -0.34309,-9.05761 1.35202,-9.56043 0.46863,-12.75472 -3.82543,-13.83246 -1.92412,-0.48293 -3.90456,-0.051 -6.64275,1.4489 l -3.90131,2.13696 -1.82674,-2.22649 c -1.61603,-1.96966 -1.99082,-2.05346 -3.24915,-0.72649 -1.53436,1.61805 -4.90868,23.30986 -3.99601,25.68825 0.29917,0.77962 1.49917,1.2812 2.66667,1.11462 1.74391,-0.24882 2.34476,-1.42509 3.36695,-6.59137 1.50879,-7.62563 3.4866,-11.66142 6.76886,-13.81203 3.82531,-2.50645 5.87756,-1.1524 5.10505,3.36825 -1.95681,11.45111 -1.97717,15.49658 -0.0849,16.88022 2.22105,1.62408 3.006,1.66903 5.53253,0.31688 z m 15.70486,-0.0347 c 4.91845,-1.71458 5.53872,-6.72654 0.68159,-5.50748 -1.28129,0.32159 -2.5311,0.24555 -2.77735,-0.16897 -0.24625,-0.41452 0.0637,-4.10103 0.68871,-8.19224 1.10741,-7.2485 1.22112,-7.46046 4.45009,-8.29509 2.65049,-0.68509 3.25088,-1.29778 3,-3.06142 -0.19623,-1.37954 -1.13288,-2.32152 -2.50215,-2.51641 -1.36341,-0.19406 -2.30594,-1.13659 -2.5,-2.5 -0.42771,-3.00509 -4.74834,-3.64598 -5.48888,-0.81419 -0.29233,1.1179 -1.60951,2.73887 -2.92706,3.60216 -2.79013,1.82816 -3.09375,4.03341 -0.73693,5.35235 1.50242,0.84079 1.5404,1.79329 0.4033,10.1141 -1.14878,8.40635 -1.10665,9.35016 0.49637,11.12148 2.0147,2.22622 2.97791,2.34183 7.21231,0.86571 z m 20.15788,-0.39313 C 217.09962,200.89713 218,199.20225 218,194.87276 c 0,-2.85705 -1.48872,-4.83785 -6.89246,-9.17066 -3.10653,-2.49086 -2.14594,-4.18976 2.41349,-4.26851 4.84141,-0.0836 7.02029,-2.77747 4.03784,-4.99216 -3.29784,-2.44889 -8.34837,-1.80578 -11.63579,1.48165 -4.30157,4.30156 -3.89794,7.47375 1.57692,12.39335 2.475,2.22399 4.5,4.91184 4.5,5.973 0,1.67351 -0.49732,1.84683 -3.75,1.30686 -7.44146,-1.23532 -7.73588,-1.19552 -8.06117,1.08972 -0.61714,4.33558 8.08559,6.7748 13.73965,3.85098 z m -83.19822,-6.94657 c 1.41748,-7.84265 3.17444,-11.05888 7.33987,-13.43617 3.38382,-1.93119 4.39024,-3.89461 2.91036,-5.67776 -1.21815,-1.46778 -4.39742,-0.88397 -6.05361,1.11161 -0.94607,1.13995 -1.41815,1.02677 -2.79151,-0.66925 -3.36043,-4.14996 -4.72813,-1.695 -6.51323,11.69096 -0.91734,6.87892 -1.39014,12.95656 -1.05066,13.50585 0.33948,0.54929 1.5831,0.86048 2.76359,0.69153 1.81072,-0.25916 2.34163,-1.38765 3.39519,-7.21677 z m 21.33931,-26.17424 c 0.95388,-1.14936 1.02615,-2.04088 0.26345,-3.25 -1.33724,-2.11998 -4.31145,-2.14749 -5.63318,-0.0521 -2.38692,3.78405 2.48388,6.77933 5.36973,3.3021 z M 105.77228,157.3183 c 4.90734,-2.04519 11.05255,-8.06293 14.0462,-13.75484 2.31112,-4.39422 2.66337,-6.253 2.66514,-14.06346 0.002,-10.60848 -1.68084,-14.66176 -8.82243,-21.24466 -7.66963,-7.06961 -19.253635,-8.959428 -29.268641,-4.77489 -5.220324,2.18119 -11.957863,9.08161 -14.392008,14.73993 -7.732964,17.97576 1.251052,37.29075 18.999459,40.84748 4.395046,0.88076 12.48607,0.0368 16.77228,-1.74956 z m -17.353842,-9.28715 c -7.511493,-3.03872 -11.673325,-16.69735 -7.86539,-25.81327 6.226786,-14.90646 25.136012,-14.11504 29.432882,1.23188 3.6822,13.1515 -3.61207,25.6421 -14.883813,25.48685 -2.531164,-0.0349 -5.53882,-0.44232 -6.683679,-0.90546 z m 77.918162,6.28208 C 167.26695,148.5801 166.16808,148 154.37756,148 L 144,148 l 0,-6.95956 0,-6.95956 8.22878,-0.29044 c 8.0082,-0.28265 8.25512,-0.36557 9.2116,-3.09321 1.73062,-4.93531 -0.0197,-6.15688 -9.29578,-6.48767 L 144,123.91912 l 0,-5.42458 0,-5.42457 10.18009,-0.28499 10.1801,-0.28498 0.83305,-3 c 0.45819,-1.65 0.59357,-4.0125 0.30086,-5.25 -0.5253,-2.22079 -0.74615,-2.25 -17.01315,-2.25 -12.48745,0 -16.49487,0.30289 -16.53841,1.25 -0.0625,1.35862 -0.0446,52.7716 0.0188,54 0.0213,0.4125 7.6298,0.75 16.90784,0.75 l 16.86916,0 0.59828,-3.68677 z M 18,118 c 0,-1.33333 -0.666667,-2 -2,-2 -1.92719,0 -2.709897,1.95677 -1.333333,3.33333 C 16.043231,120.7099 18,119.92719 18,118 z m 168.71691,10.25 c -0.22062,-0.4125 -0.1964,-4.0125 0.0538,-8 0.45176,-7.19916 0.47496,-7.25 3.30731,-7.25 3.45092,0 9.92195,5.32798 9.92195,8.16933 0,1.07919 -0.4553,2.81288 -1.01177,3.85266 -1.42462,2.66193 -11.19893,5.23309 -12.27132,3.22801 z M 81.25,58.358574 C 77.186706,54.37466 76.99597,52.531189 80.744406,53.471986 84.5338,54.423063 86,55.843469 86,58.563428 c 0,3.407144 -1.115081,3.359054 -4.75,-0.204854 z"
       id="path3084"
       inkscape:connector-curvature="0" />
    <path
       style="fill:#25746c"
       d="m 144.09496,268.47155 c -2.82121,-1.94065 -6.51038,-3.80463 -8.19816,-4.14219 -1.68778,-0.33756 -3.2828,-1.17168 -3.54448,-1.85361 -0.26168,-0.68193 -2.18956,-1.51392 -4.28418,-1.84886 -2.09462,-0.33495 -4.37194,-1.28802 -5.06071,-2.11794 C 122.25864,257.60672 120.08444,257 117.60006,257 c -2.28528,0 -5.04268,-0.59506 -6.12755,-1.32235 -2.81958,-1.89021 -12.888641,-4.0636 -15.573475,-3.3615 -1.250049,0.3269 -4.213716,0.32833 -6.585926,0.003 C 85.611967,251.81203 85,251.39272 85,249.36408 c 0,-1.30025 -0.3375,-2.35181 -0.75,-2.33681 -1.495688,0.0544 -8.716888,9.18291 -9.720609,12.28811 -0.794744,2.45869 -1.683789,3.25941 -3.90022,3.5127 -4.981346,0.56928 -7.41425,-0.57306 -8.126445,-3.81567 -0.36113,-1.64421 -1.099735,-3.26335 -1.641346,-3.59808 -0.54161,-0.33474 -1.356282,-1.58582 -1.810382,-2.78019 C 58.238997,250.49841 57.615772,250.29247 43.25,247.4129 41.667208,247.09564 41,246.25046 41,244.56274 c 0,-1.31954 -0.290659,-3.15661 -0.645909,-4.08238 -1.017064,-2.65042 2.943839,-1.42807 4.133037,1.27548 0.542921,1.23429 1.330421,2.24416 1.75,2.24416 1.100673,0 0.938769,-1.77326 -0.227728,-2.49419 -0.585536,-0.36188 -0.127217,-1.78001 1.120841,-3.4681 1.774147,-2.39966 1.967208,-3.46945 1.208552,-6.69679 -0.756549,-3.21838 -1.365695,-3.89436 -3.758311,-4.17061 -2.520418,-0.29101 -2.787055,-0.0683 -2.272689,1.89869 0.637914,2.43939 -0.184032,7.94016 -1.182793,7.91569 -0.34375,-0.008 -1.229936,-0.39871 -1.969302,-0.8673 -1.111786,-0.70462 -1.071806,-1.37894 0.231141,-3.89856 0.866495,-1.67562 1.868538,-5.54034 2.226763,-8.58827 0.648939,-5.52147 0.638612,-5.5492 -2.828302,-7.59473 -1.913791,-1.12916 -4.329691,-3.63151 -5.368667,-5.56078 -1.180609,-2.19225 -2.410535,-3.30763 -3.279589,-2.97414 C 28.301687,208.2052 26,206.22086 26,203.93426 c 0,-1.00147 -0.961641,-2.49441 -2.136981,-3.31765 -2.572828,-1.80208 -2.146881,-5.36698 1.56722,-13.11661 1.31797,-2.75 2.957765,-7.86405 3.643989,-11.36456 0.701783,-3.57987 2.214328,-7.51764 3.457009,-9 C 35.117161,164.05077 39,157.01852 39,155.4198 c 0,-0.61041 0.9,-1.92431 2,-2.9198 1.1,-0.99549 2,-2.4476 2,-3.22692 0,-2.73073 -5.198252,-10.28473 -7.469708,-10.85483 -1.25019,-0.31378 -3.997273,-2.33625 -6.10463,-4.49438 C 27.318305,131.76574 25.026264,130 24.332236,130 c -0.694028,0 -1.684659,-0.78999 -2.201402,-1.75553 -0.516743,-0.96555 -2.918824,-2.57176 -5.337957,-3.56937 -5.091419,-2.09961 -7.3214006,-4.90826 -5.905626,-7.43811 0.827439,-1.47855 1.108028,-1.34146 2.211586,1.08059 1.518268,3.33223 5.230057,3.38094 5.702053,0.0748 0.219813,-1.53969 -0.504933,-2.44138 -2.689643,-3.34632 -1.644793,-0.6813 -3.467694,-0.94382 -4.05089,-0.58338 C 11.477161,114.82313 11,114.66803 11,114.11803 c 0,-0.55 0.398987,-1.24658 0.886637,-1.54797 0.48765,-0.30138 1.193434,-2.18334 1.568408,-4.18212 0.743279,-3.96202 1.63236,-5.76316 5.794955,-11.739664 C 20.916979,94.254887 22,91.380622 22,89.349962 22,87.507483 22.378128,86 22.840285,86 23.302442,86 24.274314,83.525 25,80.5 25.76571,77.308163 26.868499,75 27.627778,75 c 0.719591,0 1.885219,-1.072226 2.590285,-2.382725 0.705065,-1.310499 3.003459,-4.274454 5.107542,-6.586566 3.533357,-3.8827 3.958476,-4.083594 5.564934,-2.62977 0.956631,0.865739 3.172609,2.073715 4.924395,2.684391 3.123674,1.088919 4.16432,3.191423 2.185066,4.41467 -0.55,0.339919 -1,0.95867 -1,1.375003 0,1.066716 8.484117,4.342403 22.5,8.68717 6.6,2.045926 14.64616,5.042496 17.880355,6.659045 3.234195,1.616548 9.984195,4.075085 15.000005,5.463415 5.0158,1.38833 13.39464,3.939741 18.61964,5.669802 l 9.5,3.145565 0.5,28.5 0.5,28.5 17.5,0 17.5,0 0.30115,-5.21811 c 0.36542,-6.33155 -0.1354,-6.56111 -13.13,-6.01825 -4.82981,0.20177 -9.01306,-0.008 -9.2961,-0.46581 -0.28303,-0.45796 -0.20636,-3.29982 0.17039,-6.31525 L 145.23045,135 l 7.18477,0 c 4.25483,0 7.67414,-0.48936 8.38478,-1.2 1.82549,-1.82549 1.53969,-9.45567 -0.38179,-10.19301 -0.86998,-0.33385 -4.80748,-0.60724 -8.75,-0.60755 l -7.16821,-5.5e-4 0,-4.74945 0,-4.74944 8.02845,0.0945 c 10.27401,0.12093 19.94976,3.9574 20.80095,8.24765 0.29002,1.46182 0.27316,9.8643 -0.0375,18.67218 -0.65893,18.68348 -0.6187,18.7769 7.87689,18.29074 L 186.5,158.5 l 0.28621,-9.75 c 0.27412,-9.3379 0.38062,-9.75 2.51988,-9.75 1.7643,0 3.47775,2.0873 8.15405,9.93312 6.12661,10.27913 7.45334,11.3503 12.93855,10.44627 6.61163,-1.08969 7.60131,-1.46544 7.60131,-2.886 0,-0.80768 -2.92134,-5.41161 -6.49186,-10.23095 -3.57053,-4.81934 -6.49553,-9.32494 -6.5,-10.01244 -0.01,-1.47948 4.16198,-1.67988 5.57408,-0.26778 1.44523,1.44523 12.57923,7.01778 14.02159,7.01778 0.68078,0 4.86552,2.25 9.29944,5 4.43391,2.75 8.45768,5 8.9417,5 0.48402,0 2.50267,1.2895 4.48589,2.86557 1.98321,1.57606 5.08259,3.45017 6.8875,4.16469 5.0176,1.98634 7.01174,3.98758 5.63111,5.65115 -0.85811,1.03396 -0.85723,2.00609 0.004,3.89526 0.63086,1.38459 1.14702,3.77741 1.14702,5.31737 0,1.53997 0.9,3.83765 2,5.10596 2.57093,2.96431 2.51889,3.85222 -0.28831,4.91952 -1.97499,0.75089 -2.2526,1.48031 -2.02745,5.32724 0.228,3.89569 -0.0506,4.59915 -2.21169,5.58379 C 257.106,196.45319 256,197.80656 256,198.85612 c 0,1.04444 -0.62761,2.41986 -1.39468,3.05648 -1.3862,1.15044 -2.509,5.69948 -2.90058,11.75181 -0.11261,1.74042 -0.54224,3.50292 -0.95474,3.91666 -0.4125,0.41375 -0.75,1.36121 -0.75,2.10547 0,0.74426 -1.125,3.13532 -2.5,5.31346 -1.375,2.17814 -2.51001,5.4317 -2.52224,7.23013 -0.0349,5.13725 -2.97388,8.14481 -8.13417,8.32407 -2.38897,0.083 -5.01859,-0.39715 -5.84359,-1.06697 -0.825,-0.66983 -7.72828,-2.19482 -15.34062,-3.38887 -7.61234,-1.19405 -14.84788,-2.83099 -16.07898,-3.63763 -1.23109,-0.80665 -3.32782,-1.45584 -4.65938,-1.44264 -8.4203,0.0835 -15.38909,-0.93773 -16.46798,-2.4132 -0.81772,-1.11829 -3.42173,-1.77604 -8.56402,-2.16317 -7.79039,-0.58649 -10.59094,0.28673 -9.55742,2.98004 0.64705,1.68618 1.24363,1.98674 6.04497,3.04554 l 2.87657,0.63434 -2.34724,2.49853 c -1.65908,1.766 -2.26534,3.44925 -2.06786,5.74131 0.15366,1.78353 -0.42488,5.31712 -1.28564,7.85243 -0.86076,2.5353 -1.3167,5.25675 -1.0132,6.04765 0.3035,0.79091 -0.14366,2.01521 -0.99369,2.72067 -0.85003,0.70546 -1.54551,1.78293 -1.54551,2.39436 0,0.61144 -1.2375,3.48027 -2.75,6.37518 -3.40288,6.51308 -5.76226,6.82512 -13.15504,1.73978 z m -44.148658,-53.4172 c 0.795468,-0.50327 1.695468,-3.02623 1.999998,-5.60659 0.53948,-4.57108 0.64667,-4.69712 4.17361,-4.90771 5.53594,-0.33053 10.37407,-3.88359 13.30956,-9.77437 6.23199,-12.50597 0.42855,-23.873 -9.64403,-18.88949 -3.23898,1.60252 -4.01286,1.69474 -4.45927,0.53142 -0.66482,-1.7325 -4.92833,-1.86035 -5.967494,-0.17894 -0.417646,0.67576 -1.294409,5.51326 -1.948361,10.75 -0.653951,5.23673 -1.782959,13.48658 -2.508905,18.33299 -1.142642,7.62828 -1.123928,8.93562 0.139344,9.73469 1.839628,1.16363 3.075756,1.16565 4.905548,0.008 z m 4.386518,-18.62942 c -1.81506,-4.72996 6.03213,-17.02679 9.19206,-14.40428 4.13479,3.43157 -1.58086,15.97935 -7.27877,15.97935 -0.71988,0 -1.58086,-0.70878 -1.91329,-1.57507 z m -19.64792,7.50846 c 4.218817,-1.59847 7.217782,-4.85826 8.355034,-9.08169 1.432803,-5.32103 -0.552633,-9.4524 -7.371902,-15.33973 -6.209534,-5.36092 -7.099037,-6.83811 -5.696113,-9.4595 1.356522,-2.53469 4.119021,-3.00715 8.591878,-1.46946 2.764804,0.9505 4.20969,1.01994 5.140924,0.24709 1.996713,-1.65713 1.53762,-4.63276 -0.954721,-6.18808 -9.141668,-5.70475 -20.75,-0.091 -20.75,10.03471 0,4.67433 1.903677,7.37062 9.091188,12.87637 4.693622,3.5954 5.810453,8.40229 2.481754,10.68159 -1.840679,1.26039 -7.536236,0.83565 -10.694437,-0.79752 C 69.276467,193.57449 67,194.82692 67,198.67134 c 0,4.5454 10.965248,7.80806 17.6849,5.26205 z m 112.28253,-1.41326 C 197.53534,202.16914 198,201.16781 198,200.29496 c 0,-1.18082 0.60065,-0.9389 2.3468,0.94524 3.12541,3.37237 9.41485,4.45154 13.53287,2.32203 7.73985,-4.00244 6.57286,-13.3292 -2.28416,-18.25539 -3.38687,-1.88374 -1.29733,-4.21066 3.23519,-3.60272 3.42501,0.45939 4.0527,0.23862 4.6472,-1.63448 2.27322,-7.16229 -13.08891,-7.60831 -16.33934,-0.4744 -2.03864,4.47434 -1.32192,6.54805 3.93283,11.379 4.32694,3.97796 4.85355,4.84317 3.58738,5.89399 -1.18583,0.98415 -2.25112,0.91111 -5.30174,-0.36352 -3.53611,-1.47748 -3.90908,-1.47022 -5.05612,0.0985 -0.93246,1.27521 -1.56778,1.42025 -2.57169,0.58708 -0.73331,-0.6086 -2.38539,-0.83141 -3.6713,-0.49514 -2.18882,0.57239 -2.29887,0.39425 -1.72477,-2.79185 0.33728,-1.87179 0.89967,-5.26481 1.24975,-7.54005 0.54776,-3.55995 1.07441,-4.26161 3.77681,-5.03183 2.35681,-0.67172 3.21702,-1.55021 3.44783,-3.5211 0.25966,-2.21729 -0.16979,-2.73092 -2.75873,-3.29955 -1.68644,-0.3704 -2.83588,-1.04624 -2.55429,-1.50185 C 196.53146,171.33106 194.71555,169 192.37157,169 c -1.60136,0 -2.79589,0.83718 -3.54713,2.48598 -0.62298,1.36728 -2.18833,3.17766 -3.47857,4.02305 -2.81644,1.8454 -3.02167,4.05893 -0.50139,5.40774 1.73221,0.92705 1.76602,1.51781 0.55556,9.70474 -1.40127,9.47753 -0.87215,11.89837 2.90611,13.29604 2.03175,0.75159 6.29777,0.0633 8.66128,-1.39742 z m -67.53886,-0.0916 c 0.86429,-0.86428 1.59118,-3.00178 1.61532,-4.75 0.0941,-6.81256 4.05724,-13.99068 8.70611,-15.76858 1.52209,-0.58211 2.25,-1.68744 2.25,-3.41662 0,-3.12867 -2.26441,-4.14956 -5.7159,-2.57696 -1.8044,0.82215 -2.90573,0.86196 -3.63623,0.13146 C 132.07154,175.47154 130.57357,175 129.31905,175 c -2.61437,0 -2.55535,-0.19473 -4.69802,15.5 -1.37709,10.08701 -1.36632,11.10375 0.12975,12.25 2.1172,1.62215 2.77974,1.57662 4.67779,-0.32143 z m 21.65499,-0.5847 c 0.96167,-1.79691 0.8253,-2.42168 -0.81857,-3.75 -1.89802,-1.53369 -1.91958,-1.94894 -0.57088,-10.99795 0.77089,-5.17225 1.1692,-10.00975 0.88514,-10.75 -0.55803,-1.45419 -5.14066,-1.86459 -5.96299,-0.53403 C 143.9041,176.96418 141,195.41658 141,198.78923 c 0,3.68421 1.65959,5.21077 5.66482,5.21077 2.32016,0 3.59869,-0.62386 4.41874,-2.15613 z m 8.2476,0.68211 c 0.81071,-0.81071 1.7827,-3.84821 2.15998,-6.75 0.73424,-5.6474 4.19985,-12.00505 7.50961,-13.77638 2.98955,-1.59996 3.45097,0.66829 2.01446,9.90265 -1.49646,9.61966 -0.61156,12.09775 4.31997,12.09775 1.79565,0 3.80482,-0.54 4.46482,-1.2 1.74525,-1.74525 1.47213,-4.8 -0.42917,-4.8 -1.42084,0 -1.52239,-0.79919 -0.79416,-6.25 1.25881,-9.42219 1.02782,-13.57408 -0.86021,-15.46211 -2.10398,-2.10398 -7.79645,-2.0457 -10.87607,0.11135 C 163.9908,178.39517 163,178.42117 163,176.5 c 0,-2.12187 -4.71133,-1.92015 -5.83892,0.25 -0.5001,0.9625 -1.49321,7.07569 -2.2069,13.58486 -1.11193,10.14138 -1.09418,11.96361 0.1241,12.73468 1.95234,1.23567 2.55004,1.15928 4.25288,-0.54356 z M 151.95432,170.555 c 0.65956,-0.79472 1.05216,-2.48222 0.87244,-3.75 C 152.22754,162.578 145,163.60985 145,167.92244 c 0,3.6785 4.63128,5.4317 6.95432,2.6326 z M 106.5,157.60976 c 24.85247,-11.78354 22.25201,-49.22996 -3.89166,-56.03953 -10.478918,-2.729407 -21.079556,0.61396 -28.432585,8.96744 -13.010803,14.78106 -8.702453,39.18548 8.316966,47.11102 6.999032,3.25928 17.085572,3.24293 24.007279,-0.0389 z M 90.351605,147.90513 C 83.144729,145.82287 79.05555,137.07149 80.26707,126.32292 c 1.240789,-11.00825 12.449687,-17.44124 21.72361,-12.46758 7.59957,4.07569 10.44063,16.9627 5.75932,26.12423 -3.61278,7.07037 -10.111757,10.03087 -17.398395,7.92556 z M 187,127 c 0,-0.55 0.42344,-1 0.94098,-1 0.51754,0 1.2191,0.45 1.55902,1 0.33992,0.55 -0.0835,1 -0.94098,1 C 187.70156,128 187,127.55 187,127 z"
       id="path3082"
       inkscape:connector-curvature="0" />
    <path
       style="fill:#1c6f67"
       d="m 143,267.02419 c -3.025,-2.16209 -6.02022,-3.75737 -6.65604,-3.54507 -0.63583,0.2123 -1.94307,-0.48365 -2.90499,-1.54656 C 132.47705,260.86965 130.50978,260 129.06725,260 c -1.44252,0 -3.39337,-0.9 -4.33522,-2 -1.31336,-1.53389 -2.94994,-2 -7.02224,-2 -5.5525,0 -7.70979,-1.17521 -7.70979,-4.2 0,-1.24173 -0.75707,-1.8 -2.44098,-1.8 -3.0481,0 -4.00177,-1.38766 -2.06074,-2.99857 1.80672,-1.49945 4.50172,-0.6211 4.50172,1.46719 0,2.34967 6.98908,2.13238 7.0318,-0.21862 0.0528,-2.90476 2.36169,-5.04559 6.22295,-5.76997 3.3511,-0.62867 3.70991,-0.46902 4.30879,1.9171 0.70251,2.79904 4.43646,3.75689 4.43646,1.13805 0,-1.50038 3.3456,-3.85625 4.22602,-2.97583 0.26894,0.26894 1.0582,-0.19689 1.75392,-1.03518 0.69572,-0.8383 1.94774,-1.52417 2.78226,-1.52417 0.83452,0 2.10192,-0.7875 2.81644,-1.75 1.23146,-1.65885 1.39053,-1.65992 3.05409,-0.0204 1.59984,1.57669 1.90867,1.59046 3.49395,0.15579 2.05948,-1.8638 6.1748,-1.22397 9.77302,1.51947 2.27394,1.73374 2.31489,1.95072 0.78133,4.14019 -1.51298,2.16008 -1.4925,2.39874 0.31445,3.66438 1.49694,1.04849 1.73101,1.85412 1.03789,3.57221 -0.96191,2.38438 -2.3762,7.58594 -2.50645,9.2184 -0.0439,0.55 -0.50999,1.675 -1.0358,2.5 -0.52581,0.825 -1.63891,2.85 -2.47357,4.5 -2.29453,4.53599 -6.20549,4.39304 -13.01755,-0.47581 z m -74,-5.4172 c 0,-0.21616 0.675,-0.65203 1.5,-0.96862 0.825,-0.31658 1.5,-0.13972 1.5,0.39301 C 72,261.56412 71.325,262 70.5,262 69.675,262 69,261.82314 69,261.60699 z m 22.209584,-12.78906 c -1.396984,-5.25041 1.872513,-12.12129 4.882643,-10.26093 0.81405,0.50311 0.451234,1.27877 -1.170255,2.50186 -2.114398,1.59489 -2.21844,2.01867 -1.037395,4.22547 1.486154,2.7769 1.205537,5.85346 -0.588381,6.45074 -0.681496,0.2269 -1.586838,-1.03879 -2.086612,-2.91714 z M 55.75,245.80556 c 2.312792,-2.3128 3.905339,-1.95573 2.904923,0.65131 C 58.329239,247.30559 57.048646,248 55.809163,248 L 53.555556,248 55.75,245.80556 z M 97,247.11078 c 0,-0.48906 0.868058,-1.95156 1.929017,-3.25 1.588953,-1.9446 2.161893,-2.1309 3.250003,-1.05679 1.09234,1.07829 0.88827,1.63697 -1.17902,3.22777 -2.739595,2.10814 -4,2.44814 -4,1.07902 z M 109.5,242 c -1.75528,-1.93956 -1.74663,-2 0.286,-2 2.35654,0 2.66656,-0.36653 3.59479,-4.25 0.58907,-2.46448 0.38683,-2.75 -1.94787,-2.75 -2.61366,0 -9.45472,-5.43032 -9.41068,-7.47005 0.0122,-0.56647 0.82807,-2.07746 1.81298,-3.35775 1.6051,-2.08647 1.92651,-2.16423 3.10021,-0.75 2.13619,2.57395 5.34519,1.85269 8.31457,-1.8688 1.5125,-1.8956 2.75,-3.66263 2.75,-3.92673 C 118,214.96511 111.94691,212 110.59636,212 c -0.603,0 -1.09636,-1.39098 -1.09636,-3.09107 0,-2.3818 0.65341,-3.43342 2.84764,-4.5831 2.63466,-1.38043 2.95168,-1.3435 4.23857,0.49379 0.96001,1.37061 2.866,2.1159 6.15235,2.40572 2.61879,0.23095 5.54894,0.77288 6.51144,1.20428 1.24416,0.55764 1.75,0.34394 1.75,-0.7393 0,-0.83801 -1.2375,-1.97563 -2.75,-2.52804 -2.42128,-0.88433 -2.4881,-1.01382 -0.55902,-1.08333 2.84942,-0.10268 3.30289,-0.96092 4.32376,-8.18325 0.93481,-6.61347 4.37323,-12.24088 8.07001,-13.20761 2.09273,-0.54726 2.15257,-0.36258 1.49736,4.62093 -2.08792,15.88061 -2.06283,16.53222 0.66295,17.21635 4.33221,1.08732 8.12545,0.14234 9.35098,-2.32952 1.13698,-2.29327 1.145,-2.29412 1.69759,-0.181 0.44956,1.7191 1.18808,2.06244 3.88079,1.80415 2.79218,-0.26784 3.51702,-0.88037 4.51914,-3.819 0.65645,-1.925 1.21895,-2.9375 1.25,-2.25 0.0322,0.71206 1.35816,1.25 3.08119,1.25 2.28616,0 3.2512,0.59561 3.95213,2.4392 0.98608,2.59358 3.814,4.5608 6.55625,4.5608 0.91554,0 3.23707,0.74618 5.15896,1.65818 2.97924,1.41374 3.64193,1.45059 4.49547,0.25 0.78558,-1.10502 0.87665,-1.02293 0.42299,0.38135 -1.20999,3.74546 4.92752,8.71047 10.76746,8.71047 1.41943,0 2.58824,1.02672 3.49129,3.06685 1.17208,2.64792 1.81178,3.02771 4.68309,2.78033 2.46468,-0.21235 4.11573,0.41752 6.37793,2.43315 3.70609,3.30214 7.13627,3.69032 6.35943,0.71967 -0.54411,-2.08069 1.10856,-2.78258 2.24026,-0.95144 0.44306,0.71688 1.09407,0.67839 2.05811,-0.1217 1.07947,-0.89588 2.11365,-0.87882 4.41098,0.0728 1.65049,0.68365 3.0009,1.63382 3.0009,2.11148 0,1.67307 10.62188,7.97122 12.33491,7.31387 0.93548,-0.35901 1.66509,-0.15393 1.66509,0.468 0,0.60885 -0.51289,1.10699 -1.13976,1.10699 -0.62686,0 -1.63936,0.64479 -2.25,1.43287 -0.61063,0.78807 -2.64964,1.57557 -4.53114,1.75 -3.09415,0.28684 -3.49994,0.0178 -4.24854,-2.81691 -0.96376,-3.64946 -5.46041,-7.13611 -7.09508,-5.50144 -0.73429,0.73429 -0.65463,1.52798 0.26452,2.63548 0.86833,1.04627 0.9787,1.9213 0.32484,2.57516 -1.29069,1.29069 -4.32484,0.11056 -4.32484,-1.68215 0,-1.62324 -3.12665,-1.86636 -4.63278,-0.36023 -1.42238,1.42238 -4.06402,0.23467 -4.67506,-2.10195 C 211.0164,229.34671 208,229.41879 208,232.01905 c 0,1.69307 -0.444,1.91441 -2.75,1.37089 -3.41415,-0.80469 -4.76561,-1.95324 -3.33713,-2.83609 0.59792,-0.36954 1.08713,-1.63533 1.08713,-2.81287 0,-1.66521 -0.26667,-1.87431 -1.2,-0.94098 -1.87452,1.87452 -2.81943,1.4427 -3.95195,-1.80603 -1.22107,-3.50278 -4.76464,-4.80864 -8.46884,-3.12089 -3.84696,1.75279 -4.37921,1.41077 -4.37921,-2.81406 0,-2.16754 -0.44204,-4.21418 -0.9823,-4.54808 -0.54027,-0.3339 -2.66973,0.53954 -4.73214,1.94098 -2.0624,1.40144 -4.74381,2.54808 -5.95868,2.54808 -1.21486,0 -2.48696,0.45 -2.82688,1 -0.33992,0.55 -1.87173,1 -3.40403,1 -1.5323,0 -3.60048,0.9 -4.59597,2 -0.99549,1.1 -2.22026,2 -2.72171,2 -0.50145,0 -2.47201,1.19008 -4.37902,2.64463 -3.2109,2.44907 -3.55989,2.51797 -4.71971,0.93182 -1.89945,-2.59765 -9.64771,-0.43947 -11.78364,3.28218 -0.86459,1.50646 -4.05815,3.9969 -7.0968,5.53432 -4.87744,2.46776 -5.78287,2.63781 -7.7271,1.45118 -1.93541,-1.18125 -2.41198,-1.10178 -3.93287,0.65587 -2.05898,2.3795 -5.57928,4.5 -7.47059,4.5 -0.74722,0 -2.17307,-0.9 -3.16856,-2 z m 12.88499,-8.46482 c 2.22824,-3.40073 2.02757,-5.03484 -0.84981,-6.92017 C 117.74651,224.13257 115,224.5045 115,227.5 c 0,1.375 0.48032,2.5 1.06739,2.5 0.5986,0 0.79894,0.84579 0.45617,1.92578 -0.40154,1.26513 0.004,2.28387 1.18261,2.96959 2.55236,1.48519 2.87613,1.39107 4.67882,-1.36019 z m 8.68075,0.42964 c 2.74766,-1.47051 2.52099,-4.18725 -0.31574,-3.78437 -1.44596,0.20536 -2.36419,1.12359 -2.56955,2.56955 -0.35793,2.52025 0.0921,2.70971 2.88529,1.21482 z M 136,230.94098 c 0,-0.58246 -0.45,-0.7809 -1,-0.44098 -0.55,0.33992 -1,0.81648 -1,1.05902 0,0.24254 0.45,0.44098 1,0.44098 0.55,0 1,-0.47656 1,-1.05902 z M 111,228 c 0,-0.55 -0.45,-1 -1,-1 -0.55,0 -1,0.45 -1,1 0,0.55 0.45,1 1,1 0.55,0 1,-0.45 1,-1 z m -52,10.93426 c 0,-0.58616 0.488264,-1.97807 1.085031,-3.09314 0.596767,-1.11507 0.812242,-3.11428 0.478832,-4.44269 -0.550963,-2.19521 -0.968752,-2.35732 -4.585031,-1.77905 C 53.168363,230.06879 52,229.89765 52,229.03656 c 0,-0.67047 -2.486488,-4.21467 -5.525529,-7.87598 -3.039041,-3.66132 -5.396697,-7.32591 -5.239235,-8.14355 0.164394,-0.85362 1.868067,-1.74371 4.001233,-2.09045 3.522108,-0.5725 3.772133,-0.43055 4.816787,2.73479 0.606017,1.83625 1.533982,3.33863 2.062145,3.33863 0.528164,0 0.873279,1.0125 0.766924,2.25 -0.568069,6.60975 -0.284982,6.9603 5.323432,6.59192 5.161741,-0.33903 5.211394,-0.31449 5.87244,2.90192 0.366676,1.78411 1.23821,3.93248 1.936744,4.77416 0.698533,0.84168 1.093435,1.63348 0.87756,1.75955 -0.215876,0.12606 -1.836779,1.24019 -3.602008,2.47583 C 59.683752,240.27806 59,240.46625 59,238.93426 z m 19.72749,-6.57947 c -0.289507,-1.51446 -0.135883,-3.78063 0.341386,-5.03595 0.682322,-1.79464 0.447134,-2.5075 -1.100557,-3.3358 C 75.423736,222.62123 75.440955,219.36956 78,218 c 1.1,-0.5887 2,-1.65109 2,-2.36087 C 80,214.05744 75.816414,210 74.185549,210 c -2.101203,0 -1.259717,-1.94545 1.064451,-2.46093 3.412684,-0.7569 10.25,-0.0908 10.25,0.9985 0,0.52934 -0.384867,0.83414 -0.85526,0.67734 C 83.369175,208.78973 81,211.03852 81,212.67446 c 0,0.78627 1.377936,1.90993 3.062081,2.49703 l 3.062081,1.06744 -2.062081,2.19499 C 83.927936,219.64116 83,221.44365 83,222.43945 c 0,1.49108 0.54659,1.70123 3.09768,1.19101 C 89.700115,222.90998 94,223.77239 94,225.2154 c 0,0.54922 -0.674499,0.73975 -1.498886,0.4234 -2.937591,-1.12726 -5.842494,0.93864 -6.962788,4.95177 -0.869651,3.11527 -1.618806,3.97122 -3.687902,4.2136 -2.142508,0.25099 -2.688603,-0.17733 -3.122934,-2.44938 z M 162.5,234 c -0.33992,-0.55 -0.16803,-1 0.38197,-1 0.55,0 1.27811,0.45 1.61803,1 0.33992,0.55 0.16803,1 -0.38197,1 -0.55,0 -1.27811,-0.45 -1.61803,-1 z m 81.1596,-10.75 c -0.25214,-0.4125 -0.6162,-2.09165 -0.80902,-3.73145 -0.26044,-2.21488 0.0986,-3.0692 1.39651,-3.32276 1.97672,-0.38618 4.06433,3.82908 3.11787,6.29553 -0.60526,1.57728 -2.91582,2.05037 -3.70536,0.75868 z M 59.943144,221.0563 c 1.204038,-0.76179 1.233207,-1.37384 0.176055,-3.69403 -1.099588,-2.41334 -1.033758,-2.95158 0.497985,-4.07162 C 61.587975,212.58079 64.024019,212 66.030615,212 c 2.939131,0 3.873954,0.49514 4.80887,2.54705 2.1578,4.73586 1.603483,5.70358 -2.837283,4.95332 -3.153818,-0.53283 -4.126405,-0.34028 -4.606989,0.9121 -0.335055,0.87314 -1.573546,1.58064 -2.752202,1.57222 -1.68178,-0.012 -1.83241,-0.21183 -0.699867,-0.92839 z M 217.62138,220.47852 C 215.12218,217.97933 215.67066,217 219.56955,217 c 3.12538,0 3.52979,0.2787 3.25,2.23978 -0.39557,2.77263 -3.03524,3.40167 -5.19817,1.23874 z M 88.1875,214.9375 c 0.240625,-0.72188 1.028125,-1.50938 1.75,-1.75 0.75,-0.25 1.125,0.125 0.875,0.875 -0.240625,0.72188 -1.028125,1.50938 -1.75,1.75 -0.75,0.25 -1.125,-0.125 -0.875,-0.875 z m 132.15758,-2.48063 c -0.93028,-2.42426 0.36778,-2.86191 1.60908,-0.54252 0.77398,1.44619 0.7892,2.08565 0.0496,2.08565 -0.58661,0 -1.33304,-0.69441 -1.65872,-1.54313 z M 200,212 c 0,-0.55 0.675,-1 1.5,-1 0.825,0 1.5,0.45 1.5,1 0,0.55 -0.675,1 -1.5,1 -0.825,0 -1.5,-0.45 -1.5,-1 z M 41.2,208.8 C 40.54,208.14 40,206.86604 40,205.96898 40,205.07192 38.875,203.73588 37.5,203 36.125,202.26412 35,201.01123 35,200.2158 c 0,-1.16654 -1.045143,-1.31566 -5.40393,-0.77107 -3.265303,0.40797 -5.647516,0.28105 -6.01943,-0.32072 -0.775759,-1.25521 0.92618,-9.02683 2.271421,-10.37207 0.675128,-0.67513 1.372121,0.35204 2.117687,3.12086 1.359811,5.04995 3.498837,5.34439 5.420129,0.74609 2.016968,-4.82728 2.523978,-14.20739 0.747613,-13.83143 -1.741683,0.36861 -4.060576,-2.67438 -4.101687,-5.38247 -0.0401,-2.64132 2.190641,-4.60261 8.218197,-7.22554 C 43.124388,164.05833 44.507796,162 41.059017,162 c -4.162435,0 -3.481126,-3.07237 2.273864,-10.25399 l 3.008256,-3.75398 -2.096439,-2.24602 c -1.153041,-1.2353 -2.403581,-3.48351 -2.778976,-4.99601 -0.38666,-1.55788 -1.394163,-2.77878 -2.32413,-2.81639 C 38.238716,137.89709 35.475,136.3217 33,134.43274 c -2.475,-1.88897 -5.570547,-3.98277 -6.878994,-4.6529 -1.308447,-0.67013 -3.740464,-2.49022 -5.404482,-4.04465 -2.286888,-2.13627 -2.743649,-3.10806 -1.871006,-3.98071 C 19.480483,121.11952 20,119.37772 20,117.88382 c 0,-2.05622 -0.728925,-3.03884 -3,-4.04411 -3.195303,-1.41438 -4.041024,-4.503 -1.5,-5.47808 0.94245,-0.36166 1.5,-1.89143 1.5,-4.11563 0,-2.57814 0.96919,-4.722785 3.56695,-7.893008 C 22.528772,93.958846 24.778772,92 25.56695,92 26.355127,92 27,91.1 27,90 27,88.9 26.55,88 26,88 24.462178,88 24.814797,81.258822 26.52568,77.95034 27.364804,76.327653 28.714804,75 29.52568,75 30.336556,75 31,74.191326 31,73.202948 c 0,-0.988379 1.783899,-3.538983 3.96422,-5.668009 l 3.964219,-3.870957 4.035781,1.819883 C 47.238982,67.411515 47.95282,68.96434 45.5,71 44.675,71.684689 44,73.733489 44,75.552888 c 0,3.292878 0.02171,3.307569 4.75,3.214221 5.296656,-0.104568 20.427156,4.187213 23.054155,6.539334 C 75.453455,88.573896 84.292373,94 85.96563,94 87.809082,94 93,97.603735 93,98.88353 c 0,0.406104 -2.212193,1.30534 -4.915984,1.9983 -10.517827,2.69564 -18.48379,10.76105 -21.144671,21.40865 -1.568066,6.27467 -0.757256,18.24617 1.538077,22.70952 0.989956,1.925 3.087518,4.97816 4.661249,6.7848 1.573731,1.80663 2.861329,4.39413 2.861329,5.75 0,2.78964 0.291073,2.92488 2.852391,1.32531 1.343271,-0.83889 2.329926,-0.84692 3.736431,-0.0304 1.802005,1.04611 1.779814,1.11122 -0.388482,1.13989 -3.923594,0.0519 -7.852964,2.77697 -9.713323,6.73636 -0.980469,2.08673 -2.257853,4.10228 -2.838631,4.47901 -0.736322,0.47763 -0.71684,1.38572 0.06436,3 1.833512,3.78879 2.273773,7.12636 1.122957,8.513 C 69.380417,184.45148 68,184.34306 68,182.47525 c 0,-1.97647 -3.278221,-3.1402 -9.414778,-3.34214 -2.703128,-0.0889 -5.515628,-0.66039 -6.25,-1.26986 -1.478122,-1.22674 -1.803274,0.49541 -1.39094,7.36703 0.288063,4.80061 -1.607546,10.51914 -3.892265,11.74188 -2.454055,1.31337 -3.455293,6.76742 -1.585578,8.63714 0.79672,0.79672 1.194557,2.11056 0.884083,2.91964 C 45.668785,210.30552 42.853669,210.45367 41.2,208.8 z M 39,173.2 c 0,-1.41318 -2.345207,-3.2 -4.2,-3.2 -2.082691,0 -2.315158,1.08484 -0.6,2.8 1.346141,1.34614 4.8,1.63396 4.8,0.4 z M 31,108 c 0,-0.55 -0.701558,-1 -1.559017,-1 -0.857459,0 -1.280902,0.45 -0.940983,1 0.339919,0.55 1.041476,1 1.559017,1 C 30.576558,109 31,108.55 31,108 z m 5.489919,-2.01631 c -0.345464,-0.55897 -1.047021,-0.75742 -1.559017,-0.44098 C 33.543858,106.39994 33.802491,107 35.559017,107 c 0.857459,0 1.276365,-0.45734 0.930902,-1.01631 z M 36,91 c 0,-0.55 -0.45,-1 -1,-1 -0.55,0 -1,0.45 -1,1 0,0.55 0.45,1 1,1 0.55,0 1,-0.45 1,-1 z m 5,-9.5 C 41,80.675 40.576558,80 40.059017,80 38.798039,80 37.894922,81.561589 38.693853,82.36052 39.820037,83.486704 41,83.04641 41,81.5 z m 181,121.36024 c 0,-1.51821 3.07857,-3.78871 5.19098,-3.82844 2.58282,-0.0486 3.33951,2.10712 1.27067,3.6199 C 226.21528,204.29429 222,204.43033 222,202.86024 z m -101.8975,-1.79689 c -1.09275,-0.67536 -0.94922,-1.9559 0.77896,-6.94961 1.1652,-3.36694 2.11854,-7.71726 2.11854,-9.66738 0,-4.12862 -2.22289,-8.93418 -4.5448,-9.82518 -2.49053,-0.95571 -7.36908,-0.73764 -9.54455,0.42664 -1.50077,0.80319 -2.34039,0.66529 -3.59633,-0.59064 -1.51794,-1.51794 -1.5162,-1.84541 0.0236,-4.45211 0.91414,-1.54751 1.66207,-3.80551 1.66207,-5.01777 0,-1.82352 0.41193,-2.10073 2.38558,-1.60537 1.50469,0.37765 2.83892,0.0525 3.6133,-0.88059 0.67526,-0.81362 1.62992,-1.23075 2.12149,-0.92695 0.49157,0.30381 1.12478,-0.0497 1.40714,-0.78548 0.82431,-2.14812 8.16957,-1.05528 8.78743,1.3074 0.64259,2.45731 2.17576,2.41299 4.72532,-0.13657 1.88225,-1.88225 3.4118,-2.0565 19.75,-2.25 L 167.5,159.5 168.09981,155 c 0.32989,-2.475 0.66739,-3.5426 0.75,-2.37244 0.0826,1.17015 0.77656,2.64739 1.54213,3.28275 2.08473,1.73018 2.69146,5.12046 1.03044,5.75785 -2.04622,0.78521 -1.76154,2.05017 1.0022,4.45321 1.33352,1.15948 2.18317,2.73723 1.88812,3.50612 -0.29505,0.76889 0.019,2.06725 0.69787,2.88524 1.05087,1.26622 0.73309,1.48819 -2.13813,1.49343 -1.85484,0.003 -4.57833,0.6353 -6.05219,1.40425 -2.31948,1.21013 -2.7555,1.20072 -3.24313,-0.07 -0.88865,-2.3158 -6.98427,-1.35511 -7.35787,1.15962 -0.87039,5.85878 -1.24838,6.58308 -2.94111,5.63578 -1.01609,-0.56863 -1.68835,-2.24083 -1.72236,-4.28422 -0.0522,-3.13932 -0.29325,-3.37121 -3.80578,-3.66193 -2.18793,-0.18108 -3.75,0.13487 -3.75,0.75848 0,0.70222 -0.67872,0.64497 -1.97873,-0.1669 -1.51518,-0.94625 -2.68551,-0.96896 -4.99568,-0.097 -1.76454,0.66604 -3.2508,0.76038 -3.58028,0.22726 C 133.13547,174.41018 131.54739,174 129.91623,174 126.47751,174 125,176.70475 125,182.99972 c 0,3.33579 -2.58674,17.92036 -3.30594,18.63956 -0.13859,0.13858 -0.85479,-0.12058 -1.59156,-0.57593 z m 32.32607,-29.63478 c 0.86429,-0.86428 1.57143,-3.11428 1.57143,-5 C 154,163.12531 153.86111,163 150.2,163 c -4.5053,0 -6.2,1.40778 -6.2,5.15031 0,4.36345 5.28702,6.41981 8.42857,3.27826 z M 125,166.56739 c 0,-1.4764 -3.70849,-3.19224 -4.71786,-2.18286 C 119.44835,165.21832 122.01832,168 123.62244,168 124.3801,168 125,167.35532 125,166.56739 z M 118.5,164 c -0.33992,-0.55 -0.81648,-1 -1.05902,-1 -0.24254,0 -0.44098,0.45 -0.44098,1 0,0.55 0.47656,1 1.05902,1 0.58246,0 0.7809,-0.45 0.44098,-1 z M 53.393011,197.41821 C 53.726855,196.54823 54,194.53479 54,192.94389 c 0,-2.19929 0.715413,-3.26248 2.985032,-4.43615 2.073549,-1.07227 2.913264,-2.19152 2.75,-3.66545 -0.268134,-2.42067 1.097005,-3.23201 3.200666,-1.90225 1.096473,0.6931 1.165431,1.23318 0.291851,2.28578 -0.629116,0.75804 -0.914481,2.25535 -0.634145,3.32735 C 63.254082,191.07961 57.253691,199 54.679012,199 c -1.315316,0 -1.707758,-0.48271 -1.286001,-1.58179 z m 97.464469,-0.31964 c -1.25522,-1.22163 -1.47976,-2.54176 -0.95227,-5.59857 l 0.69025,-4 1.73407,3.57691 c 1.11044,2.29051 1.45291,4.30398 0.95228,5.59857 -0.71769,1.85585 -0.91651,1.89055 -2.42433,0.42309 z m -44.44508,-4.51983 c 0.51423,-5.25119 1.90865,-8.14501 4.62535,-9.59895 1.56034,-0.83506 2.12085,-0.73006 2.58696,0.48462 1.54091,4.01554 -2.82509,13.53559 -6.20757,13.53559 -1.09877,0 -1.33563,-1.0423 -1.00474,-4.42126 z M 163,193.51128 c 0,-3.0285 2.70647,-8.18466 4.69708,-8.94853 0.78663,-0.30186 1.30292,0.24708 1.30292,1.3853 0,1.03691 0.41294,2.03528 0.91765,2.21862 1.49093,0.54157 0.0299,5.60976 -1.76689,6.1292 -0.90792,0.26247 -2.43826,0.80142 -3.40076,1.19767 -1.41271,0.58158 -1.75,0.19953 -1.75,-1.98226 z m 16.01101,0.73872 c 0.006,-0.9625 0.29172,-3.44857 0.63483,-5.52459 0.51343,-3.10663 0.95389,-3.66984 2.48899,-3.18262 1.40966,0.44741 1.86517,0.0871 1.86517,-1.4754 0,-1.13707 0.45857,-2.06739 1.01905,-2.06739 0.56048,0 0.81005,1.0125 0.5546,2.25 -0.25545,1.2375 -0.7416,4.3875 -1.08033,7 -0.54453,4.19982 -0.89834,4.75 -3.05459,4.75 -1.66013,0 -2.43522,-0.55872 -2.42772,-1.75 z M 95.157895,193 c 0,-1.375 0.226973,-1.9375 0.504386,-1.25 0.277412,0.6875 0.277412,1.8125 0,2.5 -0.277413,0.6875 -0.504386,0.125 -0.504386,-1.25 z M 72.95548,189.91681 c -0.889426,-1.6619 -0.764083,-2.47082 0.619803,-4 2.118684,-2.34112 3.297267,-2.39481 6.306184,-0.28728 l 2.32648,1.62953 -2.853973,2.33451 c -3.553983,2.9071 -4.977177,2.979 -6.398494,0.32324 z m 20.033238,-3.93789 c -1.400443,-2.61675 -0.813565,-3.37549 1.935921,-2.50284 2.433546,0.77238 2.62852,1.81995 0.6451,3.46604 -1.146108,0.95119 -1.658886,0.75982 -2.581021,-0.9632 z M 212,183.5 c 0,-0.825 0.17686,-1.5 0.39301,-1.5 0.21616,0 0.65203,0.675 0.96862,1.5 0.31658,0.825 0.13972,1.5 -0.39301,1.5 C 212.43588,185 212,184.325 212,183.5 z M 88,176.79669 c -7.51156,-2.63781 -8.931746,-4.10964 -6.52817,-6.76556 2.156391,-2.38279 4.278158,-2.5348 6.9693,-0.49933 1.067621,0.80751 2.944366,1.4682 4.170544,1.4682 3.11398,0 4.318081,-5.31515 1.827545,-8.06716 -1.690855,-1.86838 -1.652307,-1.93258 1.155793,-1.92504 2.173459,0.006 3.219761,0.68559 4.154988,2.69937 1.80104,3.8781 1.64524,10.29283 -0.25,10.29283 -0.95201,0 -1.5,0.95805 -1.5,2.62244 0,2.06254 -0.282637,2.38788 -1.323794,1.5238 -0.728086,-0.60426 -1.740586,-0.72053 -2.25,-0.25839 -0.510837,0.46344 -3.392751,-0.0259 -6.426206,-1.09116 z m 125.92431,-5.38486 -2.42431,-2.58816 2.75,1.24868 c 1.5125,0.68677 2.75,1.85145 2.75,2.58817 0,1.83938 -0.29549,1.71941 -3.07569,-1.24869 z m -34.91673,0.0973 c -0.71092,-0.85661 -1.0963,-1.75375 -0.85641,-1.99364 0.84822,-0.84822 4.92547,0.75457 4.57722,1.79932 -0.58546,1.7564 -2.348,1.84845 -3.72081,0.19432 z M 197.5,163 c -0.33992,-0.55 -0.16803,-1 0.38197,-1 0.55,0 1.27811,0.45 1.61803,1 0.33992,0.55 0.16803,1 -0.38197,1 -0.55,0 -1.27811,-0.45 -1.61803,-1 z m -72.32875,-6.66879 c 0.19398,-1.01731 1.38422,-1.97842 2.67793,-2.16242 1.80292,-0.25642 2.2499,0.0823 1.97957,1.5 -0.19398,1.01731 -1.38422,1.97842 -2.67793,2.16242 -1.80292,0.25642 -2.2499,-0.0823 -1.97957,-1.5 z M 82.75,133.32415 c -1.5125,-0.78831 -2.74749,-2.19623 -2.744423,-3.12872 0.01421,-4.32096 2.533656,-9.96996 5.986583,-13.42288 C 89.240011,113.52469 90.391838,113 94.273773,113 c 4.262673,0 4.595482,0.20492 6.090467,3.75 2.20166,5.22082 5.11906,8.38551 7.04793,7.64533 1.0445,-0.40081 1.58783,-0.0594 1.58783,0.99768 0,0.9274 -0.82587,1.60699 -1.95288,1.60699 -1.07408,0 -3.36689,1.75956 -5.09514,3.91012 -3.092869,3.84867 -3.246855,3.90964 -9.797119,3.87872 -3.77114,-0.0178 -7.846506,-0.65249 -9.404861,-1.46469 z M 11.582949,120.13421 c -0.430771,-0.697 -0.513159,-1.53733 -0.183085,-1.86741 0.894961,-0.89496 1.870768,0.4213 1.387387,1.87145 -0.338725,1.01617 -0.574267,1.01538 -1.204302,-0.004 z m 149.474511,-1.02685 c -1.20378,-2.24927 -0.49109,-2.667 1.93418,-1.13369 1.12338,0.71023 1.20797,1.22672 0.34264,2.09205 -0.86533,0.86533 -1.42744,0.62873 -2.27682,-0.95836 z M 149,116.5 c 0,-0.825 0.45,-1.5 1,-1.5 0.55,0 1,0.675 1,1.5 0,0.825 -0.45,1.5 -1,1.5 -0.55,0 -1,-0.675 -1,-1.5 z m -20.4,-1.1 c -0.35589,-0.92744 -0.42208,-1.91126 -0.14708,-2.18626 0.275,-0.275 0.79119,0.25882 1.14708,1.18626 0.35589,0.92744 0.42208,1.91126 0.14708,2.18626 -0.275,0.275 -0.79119,-0.25882 -1.14708,-1.18626 z m -4.32917,-3.00417 c 0.3323,-0.33229 1.1948,-0.36781 1.91667,-0.0789 0.79773,0.31922 0.56078,0.55618 -0.60417,0.60416 -1.05416,0.0434 -1.64479,-0.19292 -1.3125,-0.52522 z M 124.25,106.75 c 0.22917,-0.6875 1.24167,-1.25 2.25,-1.25 1.00833,0 2.02083,0.5625 2.25,1.25 0.26389,0.79167 -0.56111,1.25 -2.25,1.25 -1.68889,0 -2.51389,-0.45833 -2.25,-1.25 z"
       id="path3080"
       inkscape:connector-curvature="0" />
  </g>
</svg>
